<?xml version="1.0" encoding="UTF-8" standalone="no"?>
<!DOCTYPE svg PUBLIC "-//W3C//DTD SVG 1.0//EN" "http://www.w3.org/TR/2001/PR-SVG-20010719/DTD/svg10.dtd">
<svg width="63cm" height="44cm" viewBox="153 -384 1242 873" xmlns="http://www.w3.org/2000/svg" xmlns:xlink="http://www.w3.org/1999/xlink">
  <g>
    <rect style="fill: #ffffff" x="282.85" y="279" width="147.3" height="38"/>
    <rect style="fill: none; fill-opacity:0; stroke-width: 2; stroke: #000000" x="282.85" y="279" width="147.3" height="38"/>
    <text font-size="12.8" style="fill: #000000;text-anchor:middle;font-family:sans-serif;font-style:normal;font-weight:normal" x="356.5" y="301.9">
      <tspan x="356.5" y="301.9">computer's charger</tspan>
    </text>
  </g>
  <g>
    <path style="fill: #ffffff" d="M 154.923 282.784 L 188.873,282.784 C 198.248,282.784 205.848,289.5 205.848,297.784 C 205.848,306.068 198.248,312.784 188.873,312.784 L 154.923,312.784 L 154.923,282.784z"/>
    <path style="fill: none; fill-opacity:0; stroke-width: 2; stroke: #000000" d="M 154.923 282.784 L 188.873,282.784 C 198.248,282.784 205.848,289.5 205.848,297.784 C 205.848,306.068 198.248,312.784 188.873,312.784 L 154.923,312.784 L 154.923,282.784"/>
    <text font-size="12.8" style="fill: #000000;text-anchor:middle;font-family:sans-serif;font-style:normal;font-weight:normal" x="171.898" y="301.784">
      <tspan x="171.898" y="301.784">plug</tspan>
    </text>
  </g>
  <line style="fill: none; fill-opacity:0; stroke-width: 2; stroke: #000000" x1="205.848" y1="297.784" x2="282.862" y2="298"/>
  <g>
    <rect style="fill: #ffffff" x="756.002" y="17" width="152" height="128"/>
    <rect style="fill: none; fill-opacity:0; stroke-width: 2; stroke: #000000" x="756.002" y="17" width="152" height="128"/>
    <text font-size="12.8" style="fill: #000000;text-anchor:middle;font-family:sans-serif;font-style:normal;font-weight:normal" x="832.002" y="76.9">
      <tspan x="832.002" y="76.9">Yocto-Watt</tspan>
      <tspan x="832.002" y="92.9">(watt meter)</tspan>
    </text>
  </g>
  <g>
    <path style="fill: #c9c9b6" d="M 1267.2 373.632 L 1096.68,373.632 L 1168.38,445.575 L 1338.9,445.575 L 1267.2,373.632z"/>
    <path style="fill: none; fill-opacity:0; stroke-width: 0.02; stroke: #494936" d="M 1267.2 373.632 L 1096.68,373.632 L 1168.38,445.575 L 1338.9,445.575 L 1267.2,373.632"/>
    <path style="fill: none; fill-opacity:0; stroke-width: 0.02; stroke: #dbdbce" d="M 1260.66 433.422 L 1260.66,433.805 L 1260.59,434.119 L 1260.48,434.536 L 1260.34,434.954 L 1260.13,435.268 L 1259.89,435.651 L 1259.58,435.999 L 1259.26,436.312 L 1258.95,436.695 L 1258.53,437.078 L 1258.12,437.392 L 1257.66,437.67 L 1257.14,437.949 L 1256.65,438.262 L 1256.03,438.506 L 1255.47,438.82 L 1254.84,439.063 L 1254.15,439.307 L 1253.45,439.516 L 1252.79,439.725 L 1252.06,439.934 L 1251.32,440.143 L 1250.56,440.247 L 1249.72,440.387 L 1248.92,440.456 L 1248.09,440.595 L 1247.32,440.7 L 1246.45,440.804 L 1245.58,440.839 L 1244.74,440.874 L 1243.91,440.874"/>
    <path style="fill: none; fill-opacity:0; stroke-width: 0.02; stroke: #dbdbce" d="M 1245.75 440.874 L 1244.92,440.874 L 1244.12,440.839 L 1243.32,440.77 L 1242.48,440.665 L 1241.64,440.595 L 1240.88,440.456 L 1240.11,440.387 L 1239.31,440.212 L 1238.58,440.038 L 1237.81,439.829 L 1237.15,439.62 L 1236.46,439.412 L 1235.79,439.168 L 1235.17,438.924 L 1234.61,438.68 L 1234.02,438.402 L 1233.46,438.088 L 1232.97,437.81 L 1232.49,437.461 L 1232.07,437.113 L 1231.68,436.765 L 1231.37,436.452 L 1231.02,436.069 L 1230.74,435.686 L 1230.54,435.372 L 1230.29,434.989 L 1230.19,434.536 L 1230.08,434.153 L 1229.98,433.805 L 1229.94,433.422"/>
    <path style="fill: none; fill-opacity:0; stroke-width: 0.02; stroke: #dbdbce" d="M 1242.06 419.458 L 1242.93,419.458 L 1243.77,419.493 L 1244.64,419.493 L 1245.41,419.563 L 1246.24,419.667 L 1247.08,419.737 L 1247.88,419.806 L 1248.71,419.981 L 1249.44,420.12 L 1250.18,420.224 L 1250.91,420.398 L 1251.64,420.607 L 1252.3,420.781 L 1252.93,420.99 L 1253.55,421.269 L 1254.25,421.478 L 1254.74,421.722 L 1255.29,421.931 L 1255.82,422.209 L 1256.23,422.523 L 1256.69,422.801 L 1257.07,423.045 L 1257.45,423.358 L 1257.73,423.672 L 1258.01,424.02 L 1258.29,424.333 L 1258.43,424.612 L 1258.6,424.96 L 1258.71,425.239 L 1258.74,425.622 L 1258.78,425.9"/>
    <path style="fill: none; fill-opacity:0; stroke-width: 0.02; stroke: #dbdbce" d="M 1228.13 425.9 L 1228.13,425.587 L 1228.17,425.239 L 1228.31,424.925 L 1228.45,424.542 L 1228.62,424.264 L 1228.9,423.881 L 1229.18,423.602 L 1229.46,423.254 L 1229.87,423.01 L 1230.19,422.662 L 1230.61,422.383 L 1231.16,422.14 L 1231.62,421.791 L 1232.14,421.617 L 1232.69,421.339 L 1233.32,421.06 L 1233.98,420.851 L 1234.64,420.642 L 1235.31,420.468 L 1236,420.329 L 1236.73,420.155 L 1237.5,419.981 L 1238.23,419.876 L 1239,419.737 L 1239.76,419.667 L 1240.56,419.563 L 1241.4,419.493 L 1242.27,419.493 L 1243.11,419.458 L 1243.91,419.458"/>
    <path style="fill: #a5a585" d="M 1338.9 453.027 L 1168.38,453.027 L 1168.38,445.575 L 1338.9,445.575 L 1338.9,453.027z"/>
    <path style="fill: none; fill-opacity:0; stroke-width: 0.02; stroke: #494936" d="M 1338.9 453.027 L 1168.38,453.027 L 1168.38,445.575 L 1338.9,445.575 L 1338.9,453.027"/>
    <path style="fill: #a5a585" d="M 1267.2 373.632 L 1096.68,373.632 L 1096.68,256.977 L 1267.2,256.977 L 1267.2,373.632z"/>
    <path style="fill: none; fill-opacity:0; stroke-width: 0.02; stroke: #494936" d="M 1267.2 373.632 L 1096.68,373.632 L 1096.68,256.977 L 1267.2,256.977 L 1267.2,373.632"/>
    <path style="fill: #7a7a5a" d="M 1092.01 369.035 L 1092.01,252.38 L 1096.68,256.977 L 1096.68,373.632 L 1092.01,369.035z"/>
    <path style="fill: none; fill-opacity:0; stroke-width: 0.02; stroke: #494936" d="M 1092.01 369.035 L 1092.01,252.38 L 1096.68,256.977 L 1096.68,373.632 L 1092.01,369.035"/>
    <path style="fill: #ffffff" d="M 1258.78 366.215 L 1105.04,366.215 L 1105.04,266.344 L 1258.78,266.344 L 1258.78,366.215z"/>
    <path style="fill: none; fill-opacity:0; stroke-width: 0.02; stroke: #494936" d="M 1258.78 366.215 L 1105.04,366.215 L 1105.04,266.344 L 1258.78,266.344 L 1258.78,366.215"/>
    <path style="fill: #93936c" d="M 1258.78 379.273 L 1115.34,379.273 L 1152.6,416.638 L 1296.04,416.638 L 1258.78,379.273z"/>
    <path style="fill: none; fill-opacity:0; stroke-width: 0.02; stroke: #494936" d="M 1258.78 379.273 L 1115.34,379.273 L 1152.6,416.638 L 1296.04,416.638 L 1258.78,379.273"/>
    <path style="fill: #7a7a5a" d="M 1236.46 431.054 L 1236.46,430.845 L 1236.49,430.636 L 1236.53,430.427 L 1236.63,430.184 L 1236.66,429.975 L 1236.8,429.801 L 1236.87,429.592 L 1237.05,429.452 L 1237.22,429.243 L 1237.33,429.034 L 1237.5,428.86 L 1237.71,428.686 L 1237.92,428.477 L 1238.16,428.303 L 1238.37,428.199 L 1238.61,428.025 L 1238.89,427.885 L 1239.21,427.781 L 1239.45,427.607 L 1239.76,427.537 L 1240.08,427.398 L 1240.36,427.328 L 1240.7,427.224 L 1241.02,427.154 L 1241.4,427.084 L 1241.71,426.98 L 1242.06,426.945 L 1242.38,426.945 L 1242.72,426.91 L 1243.14,426.91 L 1243.42,426.91 L 1243.42,426.91 L 1243.8,426.91 L 1244.19,426.91 L 1244.5,426.945 L 1244.85,426.945 L 1245.16,426.98 L 1245.54,427.084 L 1245.86,427.154 L 1246.21,427.224 L 1246.52,427.328 L 1246.83,427.398 L 1247.11,427.537 L 1247.46,427.607 L 1247.7,427.781 L 1247.98,427.885 L 1248.26,428.025 L 1248.5,428.199 L 1248.71,428.303 L 1248.96,428.477 L 1249.17,428.686 L 1249.34,428.86 L 1249.58,429.034 L 1249.69,429.243 L 1249.9,429.452 L 1250,429.592 L 1250.11,429.801 L 1250.21,429.975 L 1250.28,430.184 L 1250.31,430.427 L 1250.38,430.636 L 1250.45,430.845 L 1250.45,431.054 L 1250.45,431.054 L 1250.45,431.298 L 1250.38,431.507 L 1250.31,431.716 L 1250.28,431.925 L 1250.21,432.134 L 1250.11,432.308 L 1250,432.551 L 1249.9,432.726 L 1249.69,432.935 L 1249.58,433.074 L 1249.34,433.283 L 1249.17,433.457 L 1248.96,433.666 L 1248.71,433.805 L 1248.5,433.944 L 1248.26,434.119 L 1247.98,434.258 L 1247.7,434.362 L 1247.46,434.536 L 1247.11,434.606 L 1246.83,434.745 L 1246.52,434.815 L 1246.21,434.919 L 1245.86,434.989 L 1245.54,435.059 L 1245.16,435.128 L 1244.85,435.198 L 1244.5,435.198 L 1244.19,435.198 L 1243.8,435.233 L 1243.42,435.233 L 1243.42,435.233 L 1243.14,435.233 L 1242.72,435.198 L 1242.38,435.198 L 1242.06,435.198 L 1241.71,435.128 L 1241.4,435.059 L 1241.02,434.989 L 1240.7,434.919 L 1240.36,434.815 L 1240.08,434.745 L 1239.76,434.606 L 1239.45,434.536 L 1239.21,434.362 L 1238.89,434.258 L 1238.61,434.119 L 1238.37,433.944 L 1238.16,433.805 L 1237.92,433.666 L 1237.71,433.457 L 1237.5,433.283 L 1237.33,433.074 L 1237.22,432.935 L 1237.05,432.726 L 1236.87,432.551 L 1236.8,432.308 L 1236.66,432.134 L 1236.63,431.925 L 1236.53,431.716 L 1236.49,431.507 L 1236.46,431.298 L 1236.46,431.054z"/>
    <path style="fill: none; fill-opacity:0; stroke-width: 0.02; stroke: #dbdbce" d="M 1237.36 430.636 L 1237.36,430.427 L 1237.4,430.218 L 1237.4,430.044 L 1237.5,429.905 L 1237.57,429.626 L 1237.6,429.522 L 1237.78,429.313 L 1237.92,429.104 L 1238.02,428.965 L 1238.16,428.825 L 1238.37,428.686 L 1238.54,428.442 L 1238.75,428.303 L 1238.96,428.199 L 1239.14,428.025 L 1239.42,427.885 L 1239.62,427.816 L 1239.87,427.642 L 1240.11,427.572 L 1240.43,427.433 L 1240.7,427.363 L 1241.02,427.293 L 1241.3,427.189 L 1241.61,427.119 L 1241.92,427.084 L 1242.27,426.98 L 1242.55,426.945 L 1242.93,426.91 L 1243.21,426.91 L 1243.56,426.91 L 1243.87,426.91 L 1243.87,426.91 L 1244.22,426.91 L 1244.53,426.91 L 1244.88,426.91 L 1245.16,426.945 L 1245.51,426.98 L 1245.79,427.084 L 1246.17,427.119 L 1246.45,427.189 L 1246.69,427.293 L 1247.04,427.363 L 1247.32,427.433 L 1247.67,427.572 L 1247.84,427.642 L 1248.16,427.816 L 1248.36,427.885 L 1248.61,428.025 L 1248.82,428.199 L 1249.03,428.303 L 1249.24,428.442 L 1249.41,428.686 L 1249.58,428.825 L 1249.72,428.965 L 1249.9,429.104 L 1249.97,429.313 L 1250.11,429.522 L 1250.18,429.626 L 1250.25,429.905 L 1250.31,430.044 L 1250.35,430.218 L 1250.38,430.427 L 1250.38,430.636 L 1250.38,430.636 L 1250.38,430.81 L 1250.35,431.019 L 1250.31,431.228 L 1250.25,431.333 L 1250.18,431.542 L 1250.11,431.751 L 1249.97,431.925 L 1249.9,432.099 L 1249.72,432.308 L 1249.58,432.412 L 1249.41,432.586 L 1249.24,432.76 L 1249.03,432.935 L 1248.82,433.039 L 1248.61,433.213 L 1248.36,433.318 L 1248.16,433.457 L 1247.84,433.596 L 1247.67,433.666 L 1247.32,433.805 L 1247.04,433.91 L 1246.69,433.944 L 1246.45,434.049 L 1246.17,434.119 L 1245.79,434.153 L 1245.51,434.258 L 1245.16,434.327 L 1244.88,434.327 L 1244.53,434.327 L 1244.22,434.327 L 1243.87,434.327 L 1243.87,434.327 L 1243.56,434.327 L 1243.21,434.327 L 1242.93,434.327 L 1242.55,434.327 L 1242.27,434.258 L 1241.92,434.153 L 1241.61,434.119 L 1241.3,434.049 L 1241.02,433.944 L 1240.7,433.91 L 1240.43,433.805 L 1240.11,433.666 L 1239.87,433.596 L 1239.62,433.457 L 1239.42,433.318 L 1239.14,433.213 L 1238.96,433.039 L 1238.75,432.935 L 1238.54,432.76 L 1238.37,432.586 L 1238.16,432.412 L 1238.02,432.308 L 1237.92,432.099 L 1237.78,431.925 L 1237.6,431.751 L 1237.57,431.542 L 1237.5,431.333 L 1237.4,431.228 L 1237.4,431.019 L 1237.36,430.81 L 1237.36,430.636"/>
    <path style="fill: none; fill-opacity:0; stroke-width: 0.02; stroke: #626248" d="M 1259.68 434.327 L 1259.68,434.745 L 1259.61,435.059 L 1259.47,435.442 L 1259.37,435.86 L 1259.16,436.208 L 1258.95,436.521 L 1258.64,436.904 L 1258.32,437.287 L 1257.98,437.601 L 1257.63,437.949 L 1257.18,438.262 L 1256.76,438.611 L 1256.2,438.889 L 1255.68,439.168 L 1255.12,439.412 L 1254.53,439.725 L 1253.87,439.969 L 1253.27,440.212 L 1252.51,440.421 L 1251.81,440.63 L 1251.08,440.874 L 1250.35,441.048 L 1249.58,441.153 L 1248.82,441.292 L 1247.98,441.431 L 1247.18,441.501 L 1246.38,441.64 L 1245.54,441.71 L 1244.67,441.745 L 1243.84,441.745 L 1243,441.745"/>
    <path style="fill: none; fill-opacity:0; stroke-width: 0.02; stroke: #626248" d="M 1244.88 441.745 L 1244.01,441.745 L 1243.21,441.745 L 1242.34,441.675 L 1241.57,441.571 L 1240.77,441.501 L 1239.94,441.431 L 1239.21,441.292 L 1238.41,441.118 L 1237.71,440.944 L 1236.94,440.804 L 1236.21,440.595 L 1235.55,440.387 L 1234.89,440.143 L 1234.26,439.829 L 1233.64,439.586 L 1233.11,439.307 L 1232.56,439.028 L 1232.07,438.68 L 1231.62,438.402 L 1231.16,438.019 L 1230.78,437.74 L 1230.4,437.392 L 1230.08,436.974 L 1229.87,436.591 L 1229.56,436.277 L 1229.42,435.86 L 1229.25,435.477 L 1229.11,435.059 L 1229.11,434.745 L 1229.04,434.327"/>
    <path style="fill: none; fill-opacity:0; stroke-width: 0.02; stroke: #626248" d="M 1241.16 420.364 L 1241.96,420.364 L 1242.79,420.398 L 1243.63,420.398 L 1244.46,420.468 L 1245.34,420.573 L 1246.17,420.607 L 1246.9,420.747 L 1247.74,420.851 L 1248.5,421.06 L 1249.24,421.13 L 1249.97,421.339 L 1250.66,421.478 L 1251.36,421.722 L 1251.99,421.931 L 1252.61,422.14 L 1253.27,422.349 L 1253.8,422.592 L 1254.35,422.836 L 1254.84,423.149 L 1255.29,423.428 L 1255.71,423.672 L 1256.13,424.02 L 1256.55,424.264 L 1256.79,424.542 L 1257.07,424.925 L 1257.31,425.204 L 1257.52,425.552 L 1257.66,425.831 L 1257.77,426.144 L 1257.8,426.527 L 1257.84,426.875"/>
    <path style="fill: none; fill-opacity:0; stroke-width: 0.02; stroke: #626248" d="M 1227.16 426.875 L 1227.23,426.492 L 1227.26,426.144 L 1227.33,425.831 L 1227.51,425.483 L 1227.72,425.169 L 1227.96,424.821 L 1228.24,424.542 L 1228.55,424.229 L 1228.9,423.881 L 1229.32,423.602 L 1229.73,423.289 L 1230.19,423.01 L 1230.74,422.766 L 1231.23,422.523 L 1231.82,422.279 L 1232.38,422 L 1233.01,421.791 L 1233.67,421.617 L 1234.4,421.408 L 1235.1,421.269 L 1235.79,421.06 L 1236.53,420.921 L 1237.29,420.781 L 1238.13,420.642 L 1238.86,420.573 L 1239.66,420.468 L 1240.5,420.398 L 1241.37,420.398 L 1242.13,420.364 L 1243,420.364"/>
    <path style="fill: #7a7a5a" d="M 1096.68 380.178 L 1168.38,452.122 L 1168.38,445.575 L 1096.68,373.632 L 1096.68,380.178z"/>
    <path style="fill: none; fill-opacity:0; stroke-width: 0.02; stroke: #494936" d="M 1096.68 380.178 L 1168.38,452.122 L 1168.38,445.575 L 1096.68,373.632 L 1096.68,380.178"/>
    <path style="fill: #7a7a5a" d="M 1120.88 368.13 L 1120.88,369.906 L 1106.92,369.906 L 1106.92,368.13 L 1120.88,368.13z"/>
    <path style="fill: none; fill-opacity:0; stroke-width: 0.02; stroke: #494936" d="M 1120.88 368.13 L 1120.88,369.906 L 1106.92,369.906 L 1106.92,368.13 L 1120.88,368.13"/>
    <path style="fill: none; fill-opacity:0; stroke-width: 0.02; stroke: #000000" d="M 1124.71 388.606 L 1267.2,388.606"/>
    <path style="fill: none; fill-opacity:0; stroke-width: 0.02; stroke: #000000" d="M 1133.97 397.973 L 1276.47,397.973"/>
    <path style="fill: none; fill-opacity:0; stroke-width: 0.02; stroke: #000000" d="M 1143.27 407.305 L 1285.8,407.305"/>
    <path style="fill: #c9c9b6" d="M 1262.54 252.38 L 1092.01,252.38 L 1096.68,256.977 L 1267.2,256.977 L 1262.54,252.38z"/>
    <path style="fill: none; fill-opacity:0; stroke-width: 0.02; stroke: #494936" d="M 1262.54 252.38 L 1092.01,252.38 L 1096.68,256.977 L 1267.2,256.977 L 1262.54,252.38"/>
  </g>
  <line style="fill: none; fill-opacity:0; stroke-width: 2; stroke: #0000ff" x1="430.138" y1="298" x2="1092.01" y2="369.036"/>
  <line style="fill: none; fill-opacity:0; stroke-width: 2; stroke: #000000" x1="430.138" y1="298" x2="756.002" y2="145"/>
  <line style="fill: none; fill-opacity:0; stroke-width: 2; stroke: #ffffff" x1="430.138" y1="298" x2="794.002" y2="145"/>
  <line style="fill: none; fill-opacity:0; stroke-width: 2; stroke: #ffffff" x1="870.002" y1="145" x2="1092.01" y2="369.036"/>
  <line style="fill: none; fill-opacity:0; stroke-width: 2; stroke: #000000" x1="908.002" y1="145" x2="1092.01" y2="369.036"/>
  <g>
    <path style="fill: none; fill-opacity:0; stroke-width: 4; stroke: #ff0000" d="M 832.002 17 C 1005.98,-112.585 818.628,-270.603 620.422,-267.45"/>
    <polyline style="fill: none; fill-opacity:0; stroke-width: 4; stroke: #ff0000" points="625.869,-272.538 615.95,-267.379 626.028,-262.539 "/>
  </g>
  <text font-size="12.8" style="fill: #ff0000;text-anchor:start;font-family:sans-serif;font-style:normal;font-weight:normal" x="857.565" y="-206.142">
    <tspan x="857.565" y="-206.142">USB</tspan>
  </text>
  <text font-size="12.8" style="fill: #000000;text-anchor:start;font-family:sans-serif;font-style:normal;font-weight:normal" x="1200.81" y="476">
    <tspan x="1200.81" y="476"></tspan>
  </text>
  <text font-size="12.8" style="fill: #000000;text-anchor:start;font-family:sans-serif;font-style:normal;font-weight:normal" x="1152.29" y="485.181">
    <tspan x="1152.29" y="485.181">Measured laptop, don't run anything !</tspan>
  </text>
  <g>
    <path style="fill: #c9c9b6" d="M 436.287 -262.712 L 606.812,-262.712 L 535.113,-190.768 L 364.587,-190.768 L 436.287,-262.712z"/>
    <path style="fill: none; fill-opacity:0; stroke-width: 0.02; stroke: #494936" d="M 436.287 -262.712 L 606.812,-262.712 L 535.113,-190.768 L 364.587,-190.768 L 436.287,-262.712"/>
    <path style="fill: none; fill-opacity:0; stroke-width: 0.02; stroke: #dbdbce" d="M 442.833 -202.921 L 442.833,-202.538 L 442.903,-202.225 L 443.007,-201.807 L 443.147,-201.389 L 443.356,-201.076 L 443.599,-200.693 L 443.913,-200.345 L 444.226,-200.031 L 444.54,-199.648 L 444.957,-199.265 L 445.375,-198.952 L 445.828,-198.673 L 446.35,-198.395 L 446.838,-198.081 L 447.465,-197.837 L 448.022,-197.524 L 448.649,-197.28 L 449.345,-197.036 L 450.042,-196.828 L 450.703,-196.619 L 451.434,-196.41 L 452.166,-196.201 L 452.932,-196.096 L 453.768,-195.957 L 454.568,-195.887 L 455.404,-195.748 L 456.17,-195.644 L 457.041,-195.539 L 457.911,-195.504 L 458.747,-195.469 L 459.583,-195.469"/>
    <path style="fill: none; fill-opacity:0; stroke-width: 0.02; stroke: #dbdbce" d="M 457.737 -195.469 L 458.573,-195.469 L 459.374,-195.504 L 460.175,-195.574 L 461.011,-195.678 L 461.846,-195.748 L 462.612,-195.887 L 463.379,-195.957 L 464.179,-196.131 L 464.911,-196.305 L 465.677,-196.514 L 466.338,-196.723 L 467.035,-196.932 L 467.696,-197.176 L 468.323,-197.419 L 468.88,-197.663 L 469.472,-197.942 L 470.03,-198.255 L 470.517,-198.534 L 471.005,-198.882 L 471.423,-199.23 L 471.806,-199.578 L 472.119,-199.892 L 472.467,-200.275 L 472.746,-200.658 L 472.955,-200.971 L 473.198,-201.354 L 473.303,-201.807 L 473.407,-202.19 L 473.512,-202.538 L 473.547,-202.921"/>
    <path style="fill: none; fill-opacity:0; stroke-width: 0.02; stroke: #dbdbce" d="M 461.428 -216.885 L 460.558,-216.885 L 459.722,-216.85 L 458.852,-216.85 L 458.085,-216.781 L 457.25,-216.676 L 456.414,-216.607 L 455.613,-216.537 L 454.777,-216.363 L 454.046,-216.224 L 453.315,-216.119 L 452.584,-215.945 L 451.852,-215.736 L 451.191,-215.562 L 450.564,-215.353 L 449.937,-215.074 L 449.241,-214.866 L 448.753,-214.622 L 448.196,-214.413 L 447.674,-214.134 L 447.256,-213.821 L 446.803,-213.542 L 446.42,-213.299 L 446.037,-212.985 L 445.758,-212.672 L 445.48,-212.324 L 445.201,-212.01 L 445.062,-211.732 L 444.888,-211.383 L 444.783,-211.105 L 444.748,-210.722 L 444.714,-210.443"/>
    <path style="fill: none; fill-opacity:0; stroke-width: 0.02; stroke: #dbdbce" d="M 475.357 -210.443 L 475.357,-210.757 L 475.323,-211.105 L 475.183,-211.418 L 475.044,-211.801 L 474.87,-212.08 L 474.591,-212.463 L 474.313,-212.741 L 474.034,-213.09 L 473.616,-213.333 L 473.303,-213.682 L 472.885,-213.96 L 472.328,-214.204 L 471.875,-214.552 L 471.353,-214.726 L 470.796,-215.005 L 470.169,-215.283 L 469.507,-215.492 L 468.846,-215.701 L 468.184,-215.875 L 467.488,-216.015 L 466.756,-216.189 L 465.99,-216.363 L 465.259,-216.467 L 464.493,-216.607 L 463.727,-216.676 L 462.926,-216.781 L 462.09,-216.85 L 461.22,-216.85 L 460.384,-216.885 L 459.583,-216.885"/>
    <path style="fill: #a5a585" d="M 364.587 -183.316 L 535.113,-183.316 L 535.113,-190.768 L 364.587,-190.768 L 364.587,-183.316z"/>
    <path style="fill: none; fill-opacity:0; stroke-width: 0.02; stroke: #494936" d="M 364.587 -183.316 L 535.113,-183.316 L 535.113,-190.768 L 364.587,-190.768 L 364.587,-183.316"/>
    <path style="fill: #a5a585" d="M 436.287 -262.712 L 606.812,-262.712 L 606.812,-379.367 L 436.287,-379.367 L 436.287,-262.712z"/>
    <path style="fill: none; fill-opacity:0; stroke-width: 0.02; stroke: #494936" d="M 436.287 -262.712 L 606.812,-262.712 L 606.812,-379.367 L 436.287,-379.367 L 436.287,-262.712"/>
    <path style="fill: #7a7a5a" d="M 611.479 -267.308 L 611.479,-383.964 L 606.812,-379.367 L 606.812,-262.712 L 611.479,-267.308z"/>
    <path style="fill: none; fill-opacity:0; stroke-width: 0.02; stroke: #494936" d="M 611.479 -267.308 L 611.479,-383.964 L 606.812,-379.367 L 606.812,-262.712 L 611.479,-267.308"/>
    <path style="fill: #ffffff" d="M 444.714 -270.129 L 598.455,-270.129 L 598.455,-370 L 444.714,-370 L 444.714,-270.129z"/>
    <path style="fill: none; fill-opacity:0; stroke-width: 0.02; stroke: #494936" d="M 444.714 -270.129 L 598.455,-270.129 L 598.455,-370 L 444.714,-370 L 444.714,-270.129"/>
    <path style="fill: #93936c" d="M 444.714 -257.07 L 588.147,-257.07 L 550.887,-219.706 L 407.454,-219.706 L 444.714,-257.07z"/>
    <path style="fill: none; fill-opacity:0; stroke-width: 0.02; stroke: #494936" d="M 444.714 -257.07 L 588.147,-257.07 L 550.887,-219.706 L 407.454,-219.706 L 444.714,-257.07"/>
    <path style="fill: #7a7a5a" d="M 467.035 -205.289 L 467.035,-205.498 L 467,-205.707 L 466.965,-205.916 L 466.861,-206.16 L 466.826,-206.369 L 466.687,-206.543 L 466.617,-206.752 L 466.443,-206.891 L 466.269,-207.1 L 466.164,-207.309 L 465.99,-207.483 L 465.781,-207.657 L 465.572,-207.866 L 465.329,-208.04 L 465.12,-208.145 L 464.876,-208.319 L 464.597,-208.458 L 464.284,-208.563 L 464.04,-208.737 L 463.727,-208.806 L 463.413,-208.946 L 463.135,-209.015 L 462.787,-209.12 L 462.473,-209.189 L 462.09,-209.259 L 461.777,-209.364 L 461.428,-209.398 L 461.115,-209.398 L 460.767,-209.433 L 460.349,-209.433 L 460.07,-209.433 L 460.07,-209.433 L 459.687,-209.433 L 459.304,-209.433 L 458.991,-209.398 L 458.643,-209.398 L 458.329,-209.364 L 457.946,-209.259 L 457.633,-209.189 L 457.285,-209.12 L 456.971,-209.015 L 456.658,-208.946 L 456.379,-208.806 L 456.031,-208.737 L 455.787,-208.563 L 455.509,-208.458 L 455.23,-208.319 L 454.986,-208.145 L 454.777,-208.04 L 454.534,-207.866 L 454.325,-207.657 L 454.151,-207.483 L 453.907,-207.309 L 453.802,-207.1 L 453.593,-206.891 L 453.489,-206.752 L 453.384,-206.543 L 453.28,-206.369 L 453.21,-206.16 L 453.176,-205.916 L 453.106,-205.707 L 453.036,-205.498 L 453.036,-205.289 L 453.036,-205.289 L 453.036,-205.046 L 453.106,-204.837 L 453.176,-204.628 L 453.21,-204.419 L 453.28,-204.21 L 453.384,-204.036 L 453.489,-203.792 L 453.593,-203.618 L 453.802,-203.409 L 453.907,-203.27 L 454.151,-203.061 L 454.325,-202.887 L 454.534,-202.678 L 454.777,-202.538 L 454.986,-202.399 L 455.23,-202.225 L 455.509,-202.086 L 455.787,-201.981 L 456.031,-201.807 L 456.379,-201.737 L 456.658,-201.598 L 456.971,-201.529 L 457.285,-201.424 L 457.633,-201.354 L 457.946,-201.285 L 458.329,-201.215 L 458.643,-201.146 L 458.991,-201.146 L 459.304,-201.146 L 459.687,-201.111 L 460.07,-201.111 L 460.07,-201.111 L 460.349,-201.111 L 460.767,-201.146 L 461.115,-201.146 L 461.428,-201.146 L 461.777,-201.215 L 462.09,-201.285 L 462.473,-201.354 L 462.787,-201.424 L 463.135,-201.529 L 463.413,-201.598 L 463.727,-201.737 L 464.04,-201.807 L 464.284,-201.981 L 464.597,-202.086 L 464.876,-202.225 L 465.12,-202.399 L 465.329,-202.538 L 465.572,-202.678 L 465.781,-202.887 L 465.99,-203.061 L 466.164,-203.27 L 466.269,-203.409 L 466.443,-203.618 L 466.617,-203.792 L 466.687,-204.036 L 466.826,-204.21 L 466.861,-204.419 L 466.965,-204.628 L 467,-204.837 L 467.035,-205.046 L 467.035,-205.289z"/>
    <path style="fill: none; fill-opacity:0; stroke-width: 0.02; stroke: #dbdbce" d="M 466.129 -205.707 L 466.129,-205.916 L 466.095,-206.125 L 466.095,-206.299 L 465.99,-206.439 L 465.921,-206.717 L 465.886,-206.822 L 465.712,-207.03 L 465.572,-207.239 L 465.468,-207.379 L 465.329,-207.518 L 465.12,-207.657 L 464.946,-207.901 L 464.737,-208.04 L 464.528,-208.145 L 464.354,-208.319 L 464.075,-208.458 L 463.866,-208.528 L 463.622,-208.702 L 463.379,-208.772 L 463.065,-208.911 L 462.787,-208.981 L 462.473,-209.05 L 462.195,-209.155 L 461.881,-209.224 L 461.568,-209.259 L 461.22,-209.364 L 460.941,-209.398 L 460.558,-209.433 L 460.279,-209.433 L 459.931,-209.433 L 459.618,-209.433 L 459.618,-209.433 L 459.269,-209.433 L 458.956,-209.433 L 458.608,-209.433 L 458.329,-209.398 L 457.981,-209.364 L 457.702,-209.259 L 457.319,-209.224 L 457.041,-209.155 L 456.797,-209.05 L 456.449,-208.981 L 456.17,-208.911 L 455.822,-208.772 L 455.648,-208.702 L 455.335,-208.528 L 455.126,-208.458 L 454.882,-208.319 L 454.673,-208.145 L 454.464,-208.04 L 454.255,-207.901 L 454.081,-207.657 L 453.907,-207.518 L 453.768,-207.379 L 453.593,-207.239 L 453.524,-207.03 L 453.384,-206.822 L 453.315,-206.717 L 453.245,-206.439 L 453.176,-206.299 L 453.141,-206.125 L 453.106,-205.916 L 453.106,-205.707 L 453.106,-205.707 L 453.106,-205.533 L 453.141,-205.324 L 453.176,-205.115 L 453.245,-205.011 L 453.315,-204.802 L 453.384,-204.593 L 453.524,-204.419 L 453.593,-204.245 L 453.768,-204.036 L 453.907,-203.931 L 454.081,-203.757 L 454.255,-203.583 L 454.464,-203.409 L 454.673,-203.304 L 454.882,-203.13 L 455.126,-203.026 L 455.335,-202.887 L 455.648,-202.747 L 455.822,-202.678 L 456.17,-202.538 L 456.449,-202.434 L 456.797,-202.399 L 457.041,-202.295 L 457.319,-202.225 L 457.702,-202.19 L 457.981,-202.086 L 458.329,-202.016 L 458.608,-202.016 L 458.956,-202.016 L 459.269,-202.016 L 459.618,-202.016 L 459.618,-202.016 L 459.931,-202.016 L 460.279,-202.016 L 460.558,-202.016 L 460.941,-202.016 L 461.22,-202.086 L 461.568,-202.19 L 461.881,-202.225 L 462.195,-202.295 L 462.473,-202.399 L 462.787,-202.434 L 463.065,-202.538 L 463.379,-202.678 L 463.622,-202.747 L 463.866,-202.887 L 464.075,-203.026 L 464.354,-203.13 L 464.528,-203.304 L 464.737,-203.409 L 464.946,-203.583 L 465.12,-203.757 L 465.329,-203.931 L 465.468,-204.036 L 465.572,-204.245 L 465.712,-204.419 L 465.886,-204.593 L 465.921,-204.802 L 465.99,-205.011 L 466.095,-205.115 L 466.095,-205.324 L 466.129,-205.533 L 466.129,-205.707"/>
    <path style="fill: none; fill-opacity:0; stroke-width: 0.02; stroke: #626248" d="M 443.808 -202.016 L 443.808,-201.598 L 443.878,-201.285 L 444.017,-200.902 L 444.122,-200.484 L 444.331,-200.136 L 444.54,-199.822 L 444.853,-199.439 L 445.166,-199.056 L 445.515,-198.743 L 445.863,-198.395 L 446.315,-198.081 L 446.733,-197.733 L 447.291,-197.454 L 447.813,-197.176 L 448.37,-196.932 L 448.962,-196.619 L 449.624,-196.375 L 450.216,-196.131 L 450.982,-195.922 L 451.678,-195.713 L 452.409,-195.469 L 453.141,-195.295 L 453.907,-195.191 L 454.673,-195.052 L 455.509,-194.912 L 456.31,-194.843 L 457.11,-194.703 L 457.946,-194.634 L 458.817,-194.599 L 459.653,-194.599 L 460.488,-194.599"/>
    <path style="fill: none; fill-opacity:0; stroke-width: 0.02; stroke: #626248" d="M 458.608 -194.599 L 459.478,-194.599 L 460.279,-194.599 L 461.15,-194.669 L 461.916,-194.773 L 462.717,-194.843 L 463.553,-194.912 L 464.284,-195.052 L 465.085,-195.226 L 465.781,-195.4 L 466.547,-195.539 L 467.279,-195.748 L 467.94,-195.957 L 468.602,-196.201 L 469.229,-196.514 L 469.855,-196.758 L 470.378,-197.036 L 470.935,-197.315 L 471.423,-197.663 L 471.875,-197.942 L 472.328,-198.325 L 472.711,-198.603 L 473.094,-198.952 L 473.407,-199.37 L 473.616,-199.753 L 473.93,-200.066 L 474.069,-200.484 L 474.243,-200.867 L 474.382,-201.285 L 474.382,-201.598 L 474.452,-202.016"/>
    <path style="fill: none; fill-opacity:0; stroke-width: 0.02; stroke: #626248" d="M 462.334 -215.98 L 461.533,-215.98 L 460.697,-215.945 L 459.861,-215.945 L 459.026,-215.875 L 458.155,-215.771 L 457.319,-215.736 L 456.588,-215.597 L 455.752,-215.492 L 454.986,-215.283 L 454.255,-215.214 L 453.524,-215.005 L 452.827,-214.866 L 452.131,-214.622 L 451.504,-214.413 L 450.877,-214.204 L 450.216,-213.995 L 449.693,-213.751 L 449.136,-213.507 L 448.649,-213.194 L 448.196,-212.915 L 447.778,-212.672 L 447.36,-212.324 L 446.942,-212.08 L 446.699,-211.801 L 446.42,-211.418 L 446.176,-211.14 L 445.967,-210.791 L 445.828,-210.513 L 445.724,-210.199 L 445.689,-209.816 L 445.654,-209.468"/>
    <path style="fill: none; fill-opacity:0; stroke-width: 0.02; stroke: #626248" d="M 476.332 -209.468 L 476.263,-209.851 L 476.228,-210.199 L 476.158,-210.513 L 475.984,-210.861 L 475.775,-211.174 L 475.532,-211.523 L 475.253,-211.801 L 474.94,-212.115 L 474.591,-212.463 L 474.173,-212.741 L 473.756,-213.055 L 473.303,-213.333 L 472.746,-213.577 L 472.258,-213.821 L 471.666,-214.065 L 471.109,-214.343 L 470.482,-214.552 L 469.821,-214.726 L 469.089,-214.935 L 468.393,-215.074 L 467.696,-215.283 L 466.965,-215.423 L 466.199,-215.562 L 465.363,-215.701 L 464.632,-215.771 L 463.831,-215.875 L 462.995,-215.945 L 462.125,-215.945 L 461.359,-215.98 L 460.488,-215.98"/>
    <path style="fill: #7a7a5a" d="M 606.812 -256.165 L 535.113,-184.222 L 535.113,-190.768 L 606.812,-262.712 L 606.812,-256.165z"/>
    <path style="fill: none; fill-opacity:0; stroke-width: 0.02; stroke: #494936" d="M 606.812 -256.165 L 535.113,-184.222 L 535.113,-190.768 L 606.812,-262.712 L 606.812,-256.165"/>
    <path style="fill: #7a7a5a" d="M 582.611 -268.214 L 582.611,-266.438 L 596.574,-266.438 L 596.574,-268.214 L 582.611,-268.214z"/>
    <path style="fill: none; fill-opacity:0; stroke-width: 0.02; stroke: #494936" d="M 582.611 -268.214 L 582.611,-266.438 L 596.574,-266.438 L 596.574,-268.214 L 582.611,-268.214"/>
    <path style="fill: none; fill-opacity:0; stroke-width: 0.02; stroke: #000000" d="M 578.78 -247.738 L 436.287,-247.738"/>
    <path style="fill: none; fill-opacity:0; stroke-width: 0.02; stroke: #000000" d="M 569.517 -238.371 L 427.024,-238.371"/>
    <path style="fill: none; fill-opacity:0; stroke-width: 0.02; stroke: #000000" d="M 560.22 -229.038 L 417.691,-229.038"/>
    <path style="fill: #c9c9b6" d="M 440.953 -383.964 L 611.479,-383.964 L 606.812,-379.367 L 436.287,-379.367 L 440.953,-383.964z"/>
    <path style="fill: none; fill-opacity:0; stroke-width: 0.02; stroke: #494936" d="M 440.953 -383.964 L 611.479,-383.964 L 606.812,-379.367 L 436.287,-379.367 L 440.953,-383.964"/>
  </g>
  <text font-size="12.8" style="fill: #000000;text-anchor:start;font-family:sans-serif;font-style:normal;font-weight:normal" x="338.539" y="-144.963">
    <tspan x="338.539" y="-144.963">The computer that run the python script.</tspan>
  </text>
</svg>
