<?xml version="1.0" encoding="UTF-8" standalone="no"?>
<!DOCTYPE svg PUBLIC "-//W3C//DTD SVG 1.0//EN" "http://www.w3.org/TR/2001/PR-SVG-20010719/DTD/svg10.dtd">
<svg width="65cm" height="41cm" viewBox="153 15 1281 809" xmlns="http://www.w3.org/2000/svg" xmlns:xlink="http://www.w3.org/1999/xlink">
  <g>
    <rect style="fill: #ffffff" x="282.85" y="279" width="147.3" height="38"/>
    <rect style="fill: none; fill-opacity:0; stroke-width: 2; stroke: #000000" x="282.85" y="279" width="147.3" height="38"/>
    <text font-size="12.8" style="fill: #000000;text-anchor:middle;font-family:sans-serif;font-style:normal;font-weight:normal" x="356.5" y="301.9">
      <tspan x="356.5" y="301.9">computer's charger</tspan>
    </text>
  </g>
  <g>
    <path style="fill: #ffffff" d="M 154.923 282.784 L 188.873,282.784 C 198.248,282.784 205.848,289.5 205.848,297.784 C 205.848,306.068 198.248,312.784 188.873,312.784 L 154.923,312.784 L 154.923,282.784z"/>
    <path style="fill: none; fill-opacity:0; stroke-width: 2; stroke: #000000" d="M 154.923 282.784 L 188.873,282.784 C 198.248,282.784 205.848,289.5 205.848,297.784 C 205.848,306.068 198.248,312.784 188.873,312.784 L 154.923,312.784 L 154.923,282.784"/>
    <text font-size="12.8" style="fill: #000000;text-anchor:middle;font-family:sans-serif;font-style:normal;font-weight:normal" x="171.898" y="301.784">
      <tspan x="171.898" y="301.784">plug</tspan>
    </text>
  </g>
  <line style="fill: none; fill-opacity:0; stroke-width: 2; stroke: #000000" x1="205.848" y1="297.784" x2="282.862" y2="298"/>
  <g>
    <rect style="fill: #ffffff" x="756.002" y="17" width="152" height="128"/>
    <rect style="fill: none; fill-opacity:0; stroke-width: 2; stroke: #000000" x="756.002" y="17" width="152" height="128"/>
    <text font-size="12.8" style="fill: #000000;text-anchor:middle;font-family:sans-serif;font-style:normal;font-weight:normal" x="832.002" y="76.9">
      <tspan x="832.002" y="76.9">Yocto-Watt</tspan>
      <tspan x="832.002" y="92.9">(watt meter)</tspan>
    </text>
  </g>
  <g>
    <path style="fill: #c9c9b6" d="M 1267.2 373.632 L 1096.68,373.632 L 1168.38,445.575 L 1338.9,445.575 L 1267.2,373.632z"/>
    <path style="fill: none; fill-opacity:0; stroke-width: 0.02; stroke: #494936" d="M 1267.2 373.632 L 1096.68,373.632 L 1168.38,445.575 L 1338.9,445.575 L 1267.2,373.632"/>
    <path style="fill: none; fill-opacity:0; stroke-width: 0.02; stroke: #dbdbce" d="M 1260.66 433.422 L 1260.66,433.805 L 1260.59,434.119 L 1260.48,434.536 L 1260.34,434.954 L 1260.13,435.268 L 1259.89,435.651 L 1259.58,435.999 L 1259.26,436.312 L 1258.95,436.695 L 1258.53,437.078 L 1258.12,437.392 L 1257.66,437.67 L 1257.14,437.949 L 1256.65,438.262 L 1256.03,438.506 L 1255.47,438.82 L 1254.84,439.063 L 1254.15,439.307 L 1253.45,439.516 L 1252.79,439.725 L 1252.06,439.934 L 1251.32,440.143 L 1250.56,440.247 L 1249.72,440.387 L 1248.92,440.456 L 1248.09,440.595 L 1247.32,440.7 L 1246.45,440.804 L 1245.58,440.839 L 1244.74,440.874 L 1243.91,440.874"/>
    <path style="fill: none; fill-opacity:0; stroke-width: 0.02; stroke: #dbdbce" d="M 1245.75 440.874 L 1244.92,440.874 L 1244.12,440.839 L 1243.32,440.77 L 1242.48,440.665 L 1241.64,440.595 L 1240.88,440.456 L 1240.11,440.387 L 1239.31,440.212 L 1238.58,440.038 L 1237.81,439.829 L 1237.15,439.62 L 1236.46,439.412 L 1235.79,439.168 L 1235.17,438.924 L 1234.61,438.68 L 1234.02,438.402 L 1233.46,438.088 L 1232.97,437.81 L 1232.49,437.461 L 1232.07,437.113 L 1231.68,436.765 L 1231.37,436.452 L 1231.02,436.069 L 1230.74,435.686 L 1230.54,435.372 L 1230.29,434.989 L 1230.19,434.536 L 1230.08,434.153 L 1229.98,433.805 L 1229.94,433.422"/>
    <path style="fill: none; fill-opacity:0; stroke-width: 0.02; stroke: #dbdbce" d="M 1242.06 419.458 L 1242.93,419.458 L 1243.77,419.493 L 1244.64,419.493 L 1245.41,419.563 L 1246.24,419.667 L 1247.08,419.737 L 1247.88,419.806 L 1248.71,419.981 L 1249.44,420.12 L 1250.18,420.224 L 1250.91,420.398 L 1251.64,420.607 L 1252.3,420.781 L 1252.93,420.99 L 1253.55,421.269 L 1254.25,421.478 L 1254.74,421.722 L 1255.29,421.931 L 1255.82,422.209 L 1256.23,422.523 L 1256.69,422.801 L 1257.07,423.045 L 1257.45,423.358 L 1257.73,423.672 L 1258.01,424.02 L 1258.29,424.333 L 1258.43,424.612 L 1258.6,424.96 L 1258.71,425.239 L 1258.74,425.622 L 1258.78,425.9"/>
    <path style="fill: none; fill-opacity:0; stroke-width: 0.02; stroke: #dbdbce" d="M 1228.13 425.9 L 1228.13,425.587 L 1228.17,425.239 L 1228.31,424.925 L 1228.45,424.542 L 1228.62,424.264 L 1228.9,423.881 L 1229.18,423.602 L 1229.46,423.254 L 1229.87,423.01 L 1230.19,422.662 L 1230.61,422.383 L 1231.16,422.14 L 1231.62,421.791 L 1232.14,421.617 L 1232.69,421.339 L 1233.32,421.06 L 1233.98,420.851 L 1234.64,420.642 L 1235.31,420.468 L 1236,420.329 L 1236.73,420.155 L 1237.5,419.981 L 1238.23,419.876 L 1239,419.737 L 1239.76,419.667 L 1240.56,419.563 L 1241.4,419.493 L 1242.27,419.493 L 1243.11,419.458 L 1243.91,419.458"/>
    <path style="fill: #a5a585" d="M 1338.9 453.027 L 1168.38,453.027 L 1168.38,445.575 L 1338.9,445.575 L 1338.9,453.027z"/>
    <path style="fill: none; fill-opacity:0; stroke-width: 0.02; stroke: #494936" d="M 1338.9 453.027 L 1168.38,453.027 L 1168.38,445.575 L 1338.9,445.575 L 1338.9,453.027"/>
    <path style="fill: #a5a585" d="M 1267.2 373.632 L 1096.68,373.632 L 1096.68,256.977 L 1267.2,256.977 L 1267.2,373.632z"/>
    <path style="fill: none; fill-opacity:0; stroke-width: 0.02; stroke: #494936" d="M 1267.2 373.632 L 1096.68,373.632 L 1096.68,256.977 L 1267.2,256.977 L 1267.2,373.632"/>
    <path style="fill: #7a7a5a" d="M 1092.01 369.035 L 1092.01,252.38 L 1096.68,256.977 L 1096.68,373.632 L 1092.01,369.035z"/>
    <path style="fill: none; fill-opacity:0; stroke-width: 0.02; stroke: #494936" d="M 1092.01 369.035 L 1092.01,252.38 L 1096.68,256.977 L 1096.68,373.632 L 1092.01,369.035"/>
    <path style="fill: #ffffff" d="M 1258.78 366.215 L 1105.04,366.215 L 1105.04,266.344 L 1258.78,266.344 L 1258.78,366.215z"/>
    <path style="fill: none; fill-opacity:0; stroke-width: 0.02; stroke: #494936" d="M 1258.78 366.215 L 1105.04,366.215 L 1105.04,266.344 L 1258.78,266.344 L 1258.78,366.215"/>
    <path style="fill: #93936c" d="M 1258.78 379.273 L 1115.34,379.273 L 1152.6,416.638 L 1296.04,416.638 L 1258.78,379.273z"/>
    <path style="fill: none; fill-opacity:0; stroke-width: 0.02; stroke: #494936" d="M 1258.78 379.273 L 1115.34,379.273 L 1152.6,416.638 L 1296.04,416.638 L 1258.78,379.273"/>
    <path style="fill: #7a7a5a" d="M 1236.46 431.054 L 1236.46,430.845 L 1236.49,430.636 L 1236.53,430.427 L 1236.63,430.184 L 1236.66,429.975 L 1236.8,429.801 L 1236.87,429.592 L 1237.05,429.452 L 1237.22,429.243 L 1237.33,429.034 L 1237.5,428.86 L 1237.71,428.686 L 1237.92,428.477 L 1238.16,428.303 L 1238.37,428.199 L 1238.61,428.025 L 1238.89,427.885 L 1239.21,427.781 L 1239.45,427.607 L 1239.76,427.537 L 1240.08,427.398 L 1240.36,427.328 L 1240.7,427.224 L 1241.02,427.154 L 1241.4,427.084 L 1241.71,426.98 L 1242.06,426.945 L 1242.38,426.945 L 1242.72,426.91 L 1243.14,426.91 L 1243.42,426.91 L 1243.42,426.91 L 1243.8,426.91 L 1244.19,426.91 L 1244.5,426.945 L 1244.85,426.945 L 1245.16,426.98 L 1245.54,427.084 L 1245.86,427.154 L 1246.21,427.224 L 1246.52,427.328 L 1246.83,427.398 L 1247.11,427.537 L 1247.46,427.607 L 1247.7,427.781 L 1247.98,427.885 L 1248.26,428.025 L 1248.5,428.199 L 1248.71,428.303 L 1248.96,428.477 L 1249.17,428.686 L 1249.34,428.86 L 1249.58,429.034 L 1249.69,429.243 L 1249.9,429.452 L 1250,429.592 L 1250.11,429.801 L 1250.21,429.975 L 1250.28,430.184 L 1250.31,430.427 L 1250.38,430.636 L 1250.45,430.845 L 1250.45,431.054 L 1250.45,431.054 L 1250.45,431.298 L 1250.38,431.507 L 1250.31,431.716 L 1250.28,431.925 L 1250.21,432.134 L 1250.11,432.308 L 1250,432.551 L 1249.9,432.726 L 1249.69,432.935 L 1249.58,433.074 L 1249.34,433.283 L 1249.17,433.457 L 1248.96,433.666 L 1248.71,433.805 L 1248.5,433.944 L 1248.26,434.119 L 1247.98,434.258 L 1247.7,434.362 L 1247.46,434.536 L 1247.11,434.606 L 1246.83,434.745 L 1246.52,434.815 L 1246.21,434.919 L 1245.86,434.989 L 1245.54,435.059 L 1245.16,435.128 L 1244.85,435.198 L 1244.5,435.198 L 1244.19,435.198 L 1243.8,435.233 L 1243.42,435.233 L 1243.42,435.233 L 1243.14,435.233 L 1242.72,435.198 L 1242.38,435.198 L 1242.06,435.198 L 1241.71,435.128 L 1241.4,435.059 L 1241.02,434.989 L 1240.7,434.919 L 1240.36,434.815 L 1240.08,434.745 L 1239.76,434.606 L 1239.45,434.536 L 1239.21,434.362 L 1238.89,434.258 L 1238.61,434.119 L 1238.37,433.944 L 1238.16,433.805 L 1237.92,433.666 L 1237.71,433.457 L 1237.5,433.283 L 1237.33,433.074 L 1237.22,432.935 L 1237.05,432.726 L 1236.87,432.551 L 1236.8,432.308 L 1236.66,432.134 L 1236.63,431.925 L 1236.53,431.716 L 1236.49,431.507 L 1236.46,431.298 L 1236.46,431.054z"/>
    <path style="fill: none; fill-opacity:0; stroke-width: 0.02; stroke: #dbdbce" d="M 1237.36 430.636 L 1237.36,430.427 L 1237.4,430.218 L 1237.4,430.044 L 1237.5,429.905 L 1237.57,429.626 L 1237.6,429.522 L 1237.78,429.313 L 1237.92,429.104 L 1238.02,428.965 L 1238.16,428.825 L 1238.37,428.686 L 1238.54,428.442 L 1238.75,428.303 L 1238.96,428.199 L 1239.14,428.025 L 1239.42,427.885 L 1239.62,427.816 L 1239.87,427.642 L 1240.11,427.572 L 1240.43,427.433 L 1240.7,427.363 L 1241.02,427.293 L 1241.3,427.189 L 1241.61,427.119 L 1241.92,427.084 L 1242.27,426.98 L 1242.55,426.945 L 1242.93,426.91 L 1243.21,426.91 L 1243.56,426.91 L 1243.87,426.91 L 1243.87,426.91 L 1244.22,426.91 L 1244.53,426.91 L 1244.88,426.91 L 1245.16,426.945 L 1245.51,426.98 L 1245.79,427.084 L 1246.17,427.119 L 1246.45,427.189 L 1246.69,427.293 L 1247.04,427.363 L 1247.32,427.433 L 1247.67,427.572 L 1247.84,427.642 L 1248.16,427.816 L 1248.36,427.885 L 1248.61,428.025 L 1248.82,428.199 L 1249.03,428.303 L 1249.24,428.442 L 1249.41,428.686 L 1249.58,428.825 L 1249.72,428.965 L 1249.9,429.104 L 1249.97,429.313 L 1250.11,429.522 L 1250.18,429.626 L 1250.25,429.905 L 1250.31,430.044 L 1250.35,430.218 L 1250.38,430.427 L 1250.38,430.636 L 1250.38,430.636 L 1250.38,430.81 L 1250.35,431.019 L 1250.31,431.228 L 1250.25,431.333 L 1250.18,431.542 L 1250.11,431.751 L 1249.97,431.925 L 1249.9,432.099 L 1249.72,432.308 L 1249.58,432.412 L 1249.41,432.586 L 1249.24,432.76 L 1249.03,432.935 L 1248.82,433.039 L 1248.61,433.213 L 1248.36,433.318 L 1248.16,433.457 L 1247.84,433.596 L 1247.67,433.666 L 1247.32,433.805 L 1247.04,433.91 L 1246.69,433.944 L 1246.45,434.049 L 1246.17,434.119 L 1245.79,434.153 L 1245.51,434.258 L 1245.16,434.327 L 1244.88,434.327 L 1244.53,434.327 L 1244.22,434.327 L 1243.87,434.327 L 1243.87,434.327 L 1243.56,434.327 L 1243.21,434.327 L 1242.93,434.327 L 1242.55,434.327 L 1242.27,434.258 L 1241.92,434.153 L 1241.61,434.119 L 1241.3,434.049 L 1241.02,433.944 L 1240.7,433.91 L 1240.43,433.805 L 1240.11,433.666 L 1239.87,433.596 L 1239.62,433.457 L 1239.42,433.318 L 1239.14,433.213 L 1238.96,433.039 L 1238.75,432.935 L 1238.54,432.76 L 1238.37,432.586 L 1238.16,432.412 L 1238.02,432.308 L 1237.92,432.099 L 1237.78,431.925 L 1237.6,431.751 L 1237.57,431.542 L 1237.5,431.333 L 1237.4,431.228 L 1237.4,431.019 L 1237.36,430.81 L 1237.36,430.636"/>
    <path style="fill: none; fill-opacity:0; stroke-width: 0.02; stroke: #626248" d="M 1259.68 434.327 L 1259.68,434.745 L 1259.61,435.059 L 1259.47,435.442 L 1259.37,435.86 L 1259.16,436.208 L 1258.95,436.521 L 1258.64,436.904 L 1258.32,437.287 L 1257.98,437.601 L 1257.63,437.949 L 1257.18,438.262 L 1256.76,438.611 L 1256.2,438.889 L 1255.68,439.168 L 1255.12,439.412 L 1254.53,439.725 L 1253.87,439.969 L 1253.27,440.212 L 1252.51,440.421 L 1251.81,440.63 L 1251.08,440.874 L 1250.35,441.048 L 1249.58,441.153 L 1248.82,441.292 L 1247.98,441.431 L 1247.18,441.501 L 1246.38,441.64 L 1245.54,441.71 L 1244.67,441.745 L 1243.84,441.745 L 1243,441.745"/>
    <path style="fill: none; fill-opacity:0; stroke-width: 0.02; stroke: #626248" d="M 1244.88 441.745 L 1244.01,441.745 L 1243.21,441.745 L 1242.34,441.675 L 1241.57,441.571 L 1240.77,441.501 L 1239.94,441.431 L 1239.21,441.292 L 1238.41,441.118 L 1237.71,440.944 L 1236.94,440.804 L 1236.21,440.595 L 1235.55,440.387 L 1234.89,440.143 L 1234.26,439.829 L 1233.64,439.586 L 1233.11,439.307 L 1232.56,439.028 L 1232.07,438.68 L 1231.62,438.402 L 1231.16,438.019 L 1230.78,437.74 L 1230.4,437.392 L 1230.08,436.974 L 1229.87,436.591 L 1229.56,436.277 L 1229.42,435.86 L 1229.25,435.477 L 1229.11,435.059 L 1229.11,434.745 L 1229.04,434.327"/>
    <path style="fill: none; fill-opacity:0; stroke-width: 0.02; stroke: #626248" d="M 1241.16 420.364 L 1241.96,420.364 L 1242.79,420.398 L 1243.63,420.398 L 1244.46,420.468 L 1245.34,420.573 L 1246.17,420.607 L 1246.9,420.747 L 1247.74,420.851 L 1248.5,421.06 L 1249.24,421.13 L 1249.97,421.339 L 1250.66,421.478 L 1251.36,421.722 L 1251.99,421.931 L 1252.61,422.14 L 1253.27,422.349 L 1253.8,422.592 L 1254.35,422.836 L 1254.84,423.149 L 1255.29,423.428 L 1255.71,423.672 L 1256.13,424.02 L 1256.55,424.264 L 1256.79,424.542 L 1257.07,424.925 L 1257.31,425.204 L 1257.52,425.552 L 1257.66,425.831 L 1257.77,426.144 L 1257.8,426.527 L 1257.84,426.875"/>
    <path style="fill: none; fill-opacity:0; stroke-width: 0.02; stroke: #626248" d="M 1227.16 426.875 L 1227.23,426.492 L 1227.26,426.144 L 1227.33,425.831 L 1227.51,425.483 L 1227.72,425.169 L 1227.96,424.821 L 1228.24,424.542 L 1228.55,424.229 L 1228.9,423.881 L 1229.32,423.602 L 1229.73,423.289 L 1230.19,423.01 L 1230.74,422.766 L 1231.23,422.523 L 1231.82,422.279 L 1232.38,422 L 1233.01,421.791 L 1233.67,421.617 L 1234.4,421.408 L 1235.1,421.269 L 1235.79,421.06 L 1236.53,420.921 L 1237.29,420.781 L 1238.13,420.642 L 1238.86,420.573 L 1239.66,420.468 L 1240.5,420.398 L 1241.37,420.398 L 1242.13,420.364 L 1243,420.364"/>
    <path style="fill: #7a7a5a" d="M 1096.68 380.178 L 1168.38,452.122 L 1168.38,445.575 L 1096.68,373.632 L 1096.68,380.178z"/>
    <path style="fill: none; fill-opacity:0; stroke-width: 0.02; stroke: #494936" d="M 1096.68 380.178 L 1168.38,452.122 L 1168.38,445.575 L 1096.68,373.632 L 1096.68,380.178"/>
    <path style="fill: #7a7a5a" d="M 1120.88 368.13 L 1120.88,369.906 L 1106.92,369.906 L 1106.92,368.13 L 1120.88,368.13z"/>
    <path style="fill: none; fill-opacity:0; stroke-width: 0.02; stroke: #494936" d="M 1120.88 368.13 L 1120.88,369.906 L 1106.92,369.906 L 1106.92,368.13 L 1120.88,368.13"/>
    <path style="fill: none; fill-opacity:0; stroke-width: 0.02; stroke: #000000" d="M 1124.71 388.606 L 1267.2,388.606"/>
    <path style="fill: none; fill-opacity:0; stroke-width: 0.02; stroke: #000000" d="M 1133.97 397.973 L 1276.47,397.973"/>
    <path style="fill: none; fill-opacity:0; stroke-width: 0.02; stroke: #000000" d="M 1143.27 407.305 L 1285.8,407.305"/>
    <path style="fill: #c9c9b6" d="M 1262.54 252.38 L 1092.01,252.38 L 1096.68,256.977 L 1267.2,256.977 L 1262.54,252.38z"/>
    <path style="fill: none; fill-opacity:0; stroke-width: 0.02; stroke: #494936" d="M 1262.54 252.38 L 1092.01,252.38 L 1096.68,256.977 L 1267.2,256.977 L 1262.54,252.38"/>
  </g>
  <line style="fill: none; fill-opacity:0; stroke-width: 2; stroke: #0000ff" x1="430.138" y1="298" x2="1092.01" y2="369.036"/>
  <line style="fill: none; fill-opacity:0; stroke-width: 2; stroke: #000000" x1="430.138" y1="298" x2="756.002" y2="145"/>
  <line style="fill: none; fill-opacity:0; stroke-width: 2; stroke: #ffffff" x1="430.138" y1="298" x2="794.002" y2="145"/>
  <line style="fill: none; fill-opacity:0; stroke-width: 2; stroke: #ffffff" x1="870.002" y1="145" x2="1092.01" y2="369.036"/>
  <line style="fill: none; fill-opacity:0; stroke-width: 2; stroke: #000000" x1="908.002" y1="145" x2="1092.01" y2="369.036"/>
  <g>
    <path style="fill: none; fill-opacity:0; stroke-width: 2; stroke: #ff0000" d="M 908.002 81 C 1295.93,59 1417.93,296 1340.91,449.033"/>
    <polyline style="fill: none; fill-opacity:0; stroke-width: 2; stroke: #ff0000" points="1339.94,439.85 1339.91,451.031 1348.87,444.346 "/>
  </g>
  <text font-size="12.8" style="fill: #ff0000;text-anchor:start;font-family:sans-serif;font-style:normal;font-weight:normal" x="1254.51" y="145">
    <tspan x="1254.51" y="145">USB</tspan>
  </text>
  <g>
    <path style="fill: #c9c9b6" d="M 338.431 687.276 L 508.956,687.276 L 437.257,759.219 L 266.731,759.219 L 338.431,687.276z"/>
    <path style="fill: none; fill-opacity:0; stroke-width: 0.02; stroke: #494936" d="M 338.431 687.276 L 508.956,687.276 L 437.257,759.219 L 266.731,759.219 L 338.431,687.276"/>
    <path style="fill: none; fill-opacity:0; stroke-width: 0.02; stroke: #dbdbce" d="M 344.977 747.066 L 344.977,747.449 L 345.047,747.762 L 345.151,748.18 L 345.291,748.598 L 345.5,748.912 L 345.743,749.295 L 346.057,749.643 L 346.37,749.956 L 346.683,750.339 L 347.101,750.722 L 347.519,751.036 L 347.972,751.314 L 348.494,751.593 L 348.982,751.906 L 349.609,752.15 L 350.166,752.463 L 350.793,752.707 L 351.489,752.951 L 352.185,753.16 L 352.847,753.369 L 353.578,753.578 L 354.31,753.787 L 355.076,753.891 L 355.911,754.03 L 356.712,754.1 L 357.548,754.239 L 358.314,754.344 L 359.185,754.448 L 360.055,754.483 L 360.891,754.518 L 361.727,754.518"/>
    <path style="fill: none; fill-opacity:0; stroke-width: 0.02; stroke: #dbdbce" d="M 359.881 754.518 L 360.717,754.518 L 361.518,754.483 L 362.319,754.413 L 363.155,754.309 L 363.99,754.239 L 364.756,754.1 L 365.522,754.03 L 366.323,753.856 L 367.055,753.682 L 367.821,753.473 L 368.482,753.264 L 369.179,753.055 L 369.84,752.812 L 370.467,752.568 L 371.024,752.324 L 371.616,752.046 L 372.174,751.732 L 372.661,751.454 L 373.149,751.105 L 373.566,750.757 L 373.949,750.409 L 374.263,750.095 L 374.611,749.712 L 374.89,749.329 L 375.099,749.016 L 375.342,748.633 L 375.447,748.18 L 375.551,747.797 L 375.656,747.449 L 375.691,747.066"/>
    <path style="fill: none; fill-opacity:0; stroke-width: 0.02; stroke: #dbdbce" d="M 363.572 733.102 L 362.702,733.102 L 361.866,733.137 L 360.996,733.137 L 360.229,733.207 L 359.394,733.311 L 358.558,733.381 L 357.757,733.45 L 356.921,733.624 L 356.19,733.764 L 355.459,733.868 L 354.727,734.042 L 353.996,734.251 L 353.335,734.425 L 352.708,734.634 L 352.081,734.913 L 351.385,735.122 L 350.897,735.366 L 350.34,735.575 L 349.818,735.853 L 349.4,736.167 L 348.947,736.445 L 348.564,736.689 L 348.181,737.002 L 347.902,737.316 L 347.624,737.664 L 347.345,737.977 L 347.206,738.256 L 347.032,738.604 L 346.927,738.883 L 346.892,739.266 L 346.858,739.544"/>
    <path style="fill: none; fill-opacity:0; stroke-width: 0.02; stroke: #dbdbce" d="M 377.501 739.544 L 377.501,739.231 L 377.467,738.883 L 377.327,738.569 L 377.188,738.186 L 377.014,737.908 L 376.735,737.525 L 376.457,737.246 L 376.178,736.898 L 375.76,736.654 L 375.447,736.306 L 375.029,736.027 L 374.472,735.783 L 374.019,735.435 L 373.497,735.261 L 372.94,734.983 L 372.313,734.704 L 371.651,734.495 L 370.99,734.286 L 370.328,734.112 L 369.632,733.973 L 368.9,733.799 L 368.134,733.624 L 367.403,733.52 L 366.637,733.381 L 365.871,733.311 L 365.07,733.207 L 364.234,733.137 L 363.363,733.137 L 362.528,733.102 L 361.727,733.102"/>
    <path style="fill: #a5a585" d="M 266.731 766.671 L 437.257,766.671 L 437.257,759.219 L 266.731,759.219 L 266.731,766.671z"/>
    <path style="fill: none; fill-opacity:0; stroke-width: 0.02; stroke: #494936" d="M 266.731 766.671 L 437.257,766.671 L 437.257,759.219 L 266.731,759.219 L 266.731,766.671"/>
    <path style="fill: #a5a585" d="M 338.431 687.276 L 508.956,687.276 L 508.956,570.62 L 338.431,570.62 L 338.431,687.276z"/>
    <path style="fill: none; fill-opacity:0; stroke-width: 0.02; stroke: #494936" d="M 338.431 687.276 L 508.956,687.276 L 508.956,570.62 L 338.431,570.62 L 338.431,687.276"/>
    <path style="fill: #7a7a5a" d="M 513.622 682.679 L 513.622,566.024 L 508.956,570.62 L 508.956,687.276 L 513.622,682.679z"/>
    <path style="fill: none; fill-opacity:0; stroke-width: 0.02; stroke: #494936" d="M 513.622 682.679 L 513.622,566.024 L 508.956,570.62 L 508.956,687.276 L 513.622,682.679"/>
    <path style="fill: #ffffff" d="M 346.858 679.859 L 500.599,679.859 L 500.599,579.988 L 346.858,579.988 L 346.858,679.859z"/>
    <path style="fill: none; fill-opacity:0; stroke-width: 0.02; stroke: #494936" d="M 346.858 679.859 L 500.599,679.859 L 500.599,579.988 L 346.858,579.988 L 346.858,679.859"/>
    <path style="fill: #93936c" d="M 346.858 692.917 L 490.291,692.917 L 453.031,730.282 L 309.598,730.282 L 346.858,692.917z"/>
    <path style="fill: none; fill-opacity:0; stroke-width: 0.02; stroke: #494936" d="M 346.858 692.917 L 490.291,692.917 L 453.031,730.282 L 309.598,730.282 L 346.858,692.917"/>
    <path style="fill: #7a7a5a" d="M 369.179 744.698 L 369.179,744.489 L 369.144,744.28 L 369.109,744.071 L 369.005,743.827 L 368.97,743.619 L 368.831,743.444 L 368.761,743.235 L 368.587,743.096 L 368.413,742.887 L 368.308,742.678 L 368.134,742.504 L 367.925,742.33 L 367.716,742.121 L 367.473,741.947 L 367.264,741.843 L 367.02,741.668 L 366.741,741.529 L 366.428,741.425 L 366.184,741.251 L 365.871,741.181 L 365.557,741.042 L 365.279,740.972 L 364.93,740.868 L 364.617,740.798 L 364.234,740.728 L 363.921,740.624 L 363.572,740.589 L 363.259,740.589 L 362.911,740.554 L 362.493,740.554 L 362.214,740.554 L 362.214,740.554 L 361.831,740.554 L 361.448,740.554 L 361.135,740.589 L 360.787,740.589 L 360.473,740.624 L 360.09,740.728 L 359.777,740.798 L 359.429,740.868 L 359.115,740.972 L 358.802,741.042 L 358.523,741.181 L 358.175,741.251 L 357.931,741.425 L 357.653,741.529 L 357.374,741.668 L 357.13,741.843 L 356.921,741.947 L 356.678,742.121 L 356.469,742.33 L 356.294,742.504 L 356.051,742.678 L 355.946,742.887 L 355.737,743.096 L 355.633,743.235 L 355.528,743.444 L 355.424,743.619 L 355.354,743.827 L 355.319,744.071 L 355.25,744.28 L 355.18,744.489 L 355.18,744.698 L 355.18,744.698 L 355.18,744.942 L 355.25,745.151 L 355.319,745.36 L 355.354,745.569 L 355.424,745.778 L 355.528,745.952 L 355.633,746.195 L 355.737,746.369 L 355.946,746.578 L 356.051,746.718 L 356.294,746.927 L 356.469,747.101 L 356.678,747.31 L 356.921,747.449 L 357.13,747.588 L 357.374,747.762 L 357.653,747.902 L 357.931,748.006 L 358.175,748.18 L 358.523,748.25 L 358.802,748.389 L 359.115,748.459 L 359.429,748.563 L 359.777,748.633 L 360.09,748.703 L 360.473,748.772 L 360.787,748.842 L 361.135,748.842 L 361.448,748.842 L 361.831,748.877 L 362.214,748.877 L 362.214,748.877 L 362.493,748.877 L 362.911,748.842 L 363.259,748.842 L 363.572,748.842 L 363.921,748.772 L 364.234,748.703 L 364.617,748.633 L 364.93,748.563 L 365.279,748.459 L 365.557,748.389 L 365.871,748.25 L 366.184,748.18 L 366.428,748.006 L 366.741,747.902 L 367.02,747.762 L 367.264,747.588 L 367.473,747.449 L 367.716,747.31 L 367.925,747.101 L 368.134,746.927 L 368.308,746.718 L 368.413,746.578 L 368.587,746.369 L 368.761,746.195 L 368.831,745.952 L 368.97,745.778 L 369.005,745.569 L 369.109,745.36 L 369.144,745.151 L 369.179,744.942 L 369.179,744.698z"/>
    <path style="fill: none; fill-opacity:0; stroke-width: 0.02; stroke: #dbdbce" d="M 368.273 744.28 L 368.273,744.071 L 368.239,743.862 L 368.239,743.688 L 368.134,743.549 L 368.064,743.27 L 368.03,743.166 L 367.856,742.957 L 367.716,742.748 L 367.612,742.609 L 367.473,742.469 L 367.264,742.33 L 367.089,742.086 L 366.881,741.947 L 366.672,741.843 L 366.497,741.668 L 366.219,741.529 L 366.01,741.46 L 365.766,741.285 L 365.522,741.216 L 365.209,741.076 L 364.93,741.007 L 364.617,740.937 L 364.338,740.833 L 364.025,740.763 L 363.712,740.728 L 363.363,740.624 L 363.085,740.589 L 362.702,740.554 L 362.423,740.554 L 362.075,740.554 L 361.762,740.554 L 361.762,740.554 L 361.413,740.554 L 361.1,740.554 L 360.752,740.554 L 360.473,740.589 L 360.125,740.624 L 359.846,740.728 L 359.463,740.763 L 359.185,740.833 L 358.941,740.937 L 358.593,741.007 L 358.314,741.076 L 357.966,741.216 L 357.792,741.285 L 357.478,741.46 L 357.27,741.529 L 357.026,741.668 L 356.817,741.843 L 356.608,741.947 L 356.399,742.086 L 356.225,742.33 L 356.051,742.469 L 355.911,742.609 L 355.737,742.748 L 355.668,742.957 L 355.528,743.166 L 355.459,743.27 L 355.389,743.549 L 355.319,743.688 L 355.285,743.862 L 355.25,744.071 L 355.25,744.28 L 355.25,744.28 L 355.25,744.454 L 355.285,744.663 L 355.319,744.872 L 355.389,744.977 L 355.459,745.186 L 355.528,745.394 L 355.668,745.569 L 355.737,745.743 L 355.911,745.952 L 356.051,746.056 L 356.225,746.23 L 356.399,746.404 L 356.608,746.578 L 356.817,746.683 L 357.026,746.857 L 357.27,746.961 L 357.478,747.101 L 357.792,747.24 L 357.966,747.31 L 358.314,747.449 L 358.593,747.553 L 358.941,747.588 L 359.185,747.693 L 359.463,747.762 L 359.846,747.797 L 360.125,747.902 L 360.473,747.971 L 360.752,747.971 L 361.1,747.971 L 361.413,747.971 L 361.762,747.971 L 361.762,747.971 L 362.075,747.971 L 362.423,747.971 L 362.702,747.971 L 363.085,747.971 L 363.363,747.902 L 363.712,747.797 L 364.025,747.762 L 364.338,747.693 L 364.617,747.588 L 364.93,747.553 L 365.209,747.449 L 365.522,747.31 L 365.766,747.24 L 366.01,747.101 L 366.219,746.961 L 366.497,746.857 L 366.672,746.683 L 366.881,746.578 L 367.089,746.404 L 367.264,746.23 L 367.473,746.056 L 367.612,745.952 L 367.716,745.743 L 367.856,745.569 L 368.03,745.394 L 368.064,745.186 L 368.134,744.977 L 368.239,744.872 L 368.239,744.663 L 368.273,744.454 L 368.273,744.28"/>
    <path style="fill: none; fill-opacity:0; stroke-width: 0.02; stroke: #626248" d="M 345.952 747.971 L 345.952,748.389 L 346.022,748.703 L 346.161,749.086 L 346.266,749.504 L 346.475,749.852 L 346.683,750.165 L 346.997,750.548 L 347.31,750.931 L 347.659,751.245 L 348.007,751.593 L 348.459,751.906 L 348.877,752.254 L 349.434,752.533 L 349.957,752.812 L 350.514,753.055 L 351.106,753.369 L 351.768,753.613 L 352.36,753.856 L 353.126,754.065 L 353.822,754.274 L 354.553,754.518 L 355.285,754.692 L 356.051,754.797 L 356.817,754.936 L 357.653,755.075 L 358.453,755.145 L 359.254,755.284 L 360.09,755.354 L 360.961,755.389 L 361.796,755.389 L 362.632,755.389"/>
    <path style="fill: none; fill-opacity:0; stroke-width: 0.02; stroke: #626248" d="M 360.752 755.389 L 361.622,755.389 L 362.423,755.389 L 363.294,755.319 L 364.06,755.214 L 364.861,755.145 L 365.697,755.075 L 366.428,754.936 L 367.229,754.762 L 367.925,754.588 L 368.691,754.448 L 369.423,754.239 L 370.084,754.03 L 370.746,753.787 L 371.373,753.473 L 371.999,753.23 L 372.522,752.951 L 373.079,752.672 L 373.566,752.324 L 374.019,752.046 L 374.472,751.663 L 374.855,751.384 L 375.238,751.036 L 375.551,750.618 L 375.76,750.235 L 376.074,749.921 L 376.213,749.504 L 376.387,749.12 L 376.526,748.703 L 376.526,748.389 L 376.596,747.971"/>
    <path style="fill: none; fill-opacity:0; stroke-width: 0.02; stroke: #626248" d="M 364.478 734.008 L 363.677,734.008 L 362.841,734.042 L 362.005,734.042 L 361.17,734.112 L 360.299,734.216 L 359.463,734.251 L 358.732,734.391 L 357.896,734.495 L 357.13,734.704 L 356.399,734.774 L 355.668,734.983 L 354.971,735.122 L 354.275,735.366 L 353.648,735.575 L 353.021,735.783 L 352.36,735.992 L 351.837,736.236 L 351.28,736.48 L 350.793,736.793 L 350.34,737.072 L 349.922,737.316 L 349.504,737.664 L 349.086,737.908 L 348.842,738.186 L 348.564,738.569 L 348.32,738.848 L 348.111,739.196 L 347.972,739.475 L 347.867,739.788 L 347.833,740.171 L 347.798,740.519"/>
    <path style="fill: none; fill-opacity:0; stroke-width: 0.02; stroke: #626248" d="M 378.476 740.519 L 378.407,740.136 L 378.372,739.788 L 378.302,739.475 L 378.128,739.126 L 377.919,738.813 L 377.675,738.465 L 377.397,738.186 L 377.084,737.873 L 376.735,737.525 L 376.317,737.246 L 375.9,736.933 L 375.447,736.654 L 374.89,736.41 L 374.402,736.167 L 373.81,735.923 L 373.253,735.644 L 372.626,735.435 L 371.965,735.261 L 371.233,735.052 L 370.537,734.913 L 369.84,734.704 L 369.109,734.565 L 368.343,734.425 L 367.507,734.286 L 366.776,734.216 L 365.975,734.112 L 365.139,734.042 L 364.269,734.042 L 363.503,734.008 L 362.632,734.008"/>
    <path style="fill: #7a7a5a" d="M 508.956 693.822 L 437.257,765.766 L 437.257,759.219 L 508.956,687.276 L 508.956,693.822z"/>
    <path style="fill: none; fill-opacity:0; stroke-width: 0.02; stroke: #494936" d="M 508.956 693.822 L 437.257,765.766 L 437.257,759.219 L 508.956,687.276 L 508.956,693.822"/>
    <path style="fill: #7a7a5a" d="M 484.755 681.774 L 484.755,683.55 L 498.718,683.55 L 498.718,681.774 L 484.755,681.774z"/>
    <path style="fill: none; fill-opacity:0; stroke-width: 0.02; stroke: #494936" d="M 484.755 681.774 L 484.755,683.55 L 498.718,683.55 L 498.718,681.774 L 484.755,681.774"/>
    <path style="fill: none; fill-opacity:0; stroke-width: 0.02; stroke: #000000" d="M 480.924 702.249 L 338.431,702.249"/>
    <path style="fill: none; fill-opacity:0; stroke-width: 0.02; stroke: #000000" d="M 471.661 711.617 L 329.168,711.617"/>
    <path style="fill: none; fill-opacity:0; stroke-width: 0.02; stroke: #000000" d="M 462.364 720.949 L 319.835,720.949"/>
    <path style="fill: #c9c9b6" d="M 343.097 566.024 L 513.622,566.024 L 508.956,570.62 L 338.431,570.62 L 343.097,566.024z"/>
    <path style="fill: none; fill-opacity:0; stroke-width: 0.02; stroke: #494936" d="M 343.097 566.024 L 513.622,566.024 L 508.956,570.62 L 338.431,570.62 L 343.097,566.024"/>
  </g>
  <g>
    <line style="fill: none; fill-opacity:0; stroke-width: 4; stroke: #00ff00" x1="1159.94" y1="455.987" x2="522.063" y2="679.719"/>
    <polyline style="fill: none; fill-opacity:0; stroke-width: 4; stroke: #00ff00" points="1156.38,462.535 1164.16,454.507 1153.07,453.099 "/>
    <polyline style="fill: none; fill-opacity:0; stroke-width: 4; stroke: #00ff00" points="525.624,673.171 517.843,681.199 528.934,682.607 "/>
  </g>
  <text font-size="12.7998" style="fill: #00ff00;text-anchor:start;font-family:sans-serif;font-style:normal;font-weight:normal" x="815.809" y="599">
    <tspan x="815.809" y="599">TCP</tspan>
  </text>
  <text font-size="12.7998" style="fill: #000000;text-anchor:start;font-family:sans-serif;font-style:normal;font-weight:normal" x="278.809" y="805">
    <tspan x="278.809" y="805">Server HTTP that launch the log</tspan>
    <tspan x="278.809" y="821">and fetch the data with datalogger.php (now old_datalogger.php)</tspan>
  </text>
  <text font-size="12.7998" style="fill: #000000;text-anchor:start;font-family:sans-serif;font-style:normal;font-weight:normal" x="1200.81" y="476">
    <tspan x="1200.81" y="476"></tspan>
  </text>
  <text font-size="12.7998" style="fill: #000000;text-anchor:start;font-family:sans-serif;font-style:normal;font-weight:normal" x="1218.81" y="483">
    <tspan x="1218.81" y="483">Measured laptop, runs VirtualHub</tspan>
    <tspan x="1218.81" y="499">to exange with the server.</tspan>
  </text>
</svg>
