<?xml version="1.0" encoding="UTF-8" standalone="no"?>
<!DOCTYPE svg PUBLIC "-//W3C//DTD SVG 1.0//EN" "http://www.w3.org/TR/2001/PR-SVG-20010719/DTD/svg10.dtd">
<svg width="60cm" height="22cm" viewBox="153 15 1186 438" xmlns="http://www.w3.org/2000/svg" xmlns:xlink="http://www.w3.org/1999/xlink">
  <g>
    <rect style="fill: #ffffff" x="282.863" y="279" width="147.275" height="38"/>
    <rect style="fill: none; fill-opacity:0; stroke-width: 2; stroke: #000000" x="282.863" y="279" width="147.275" height="38"/>
    <text font-size="12.7998" style="fill: #000000;text-anchor:middle;font-family:sans-serif;font-style:normal;font-weight:normal" x="356.5" y="301.9">
      <tspan x="356.5" y="301.9">computer's charger</tspan>
    </text>
  </g>
  <g>
    <path style="fill: #ffffff" d="M 154.923 282.784 L 188.873,282.784 C 198.248,282.784 205.848,289.5 205.848,297.784 C 205.848,306.068 198.248,312.784 188.873,312.784 L 154.923,312.784 L 154.923,282.784z"/>
    <path style="fill: none; fill-opacity:0; stroke-width: 2; stroke: #000000" d="M 154.923 282.784 L 188.873,282.784 C 198.248,282.784 205.848,289.5 205.848,297.784 C 205.848,306.068 198.248,312.784 188.873,312.784 L 154.923,312.784 L 154.923,282.784"/>
    <text font-size="12.7998" style="fill: #000000;text-anchor:middle;font-family:sans-serif;font-style:normal;font-weight:normal" x="171.898" y="301.784">
      <tspan x="171.898" y="301.784">plug</tspan>
    </text>
  </g>
  <line style="fill: none; fill-opacity:0; stroke-width: 2; stroke: #000000" x1="205.848" y1="297.784" x2="282.863" y2="298"/>
  <g>
    <rect style="fill: #ffffff" x="756.002" y="17" width="152" height="128"/>
    <rect style="fill: none; fill-opacity:0; stroke-width: 2; stroke: #000000" x="756.002" y="17" width="152" height="128"/>
    <text font-size="12.7998" style="fill: #000000;text-anchor:middle;font-family:sans-serif;font-style:normal;font-weight:normal" x="832.002" y="76.9">
      <tspan x="832.002" y="76.9">Yocto-Watt</tspan>
      <tspan x="832.002" y="92.9">(watt meter)</tspan>
    </text>
  </g>
  <g>
    <path style="fill: #c9c9b6" d="M 1267.2 373.632 L 1096.68,373.632 L 1168.38,445.575 L 1338.9,445.575 L 1267.2,373.632z"/>
    <path style="fill: none; fill-opacity:0; stroke-width: 0.02; stroke: #494936" d="M 1267.2 373.632 L 1096.68,373.632 L 1168.38,445.575 L 1338.9,445.575 L 1267.2,373.632"/>
    <path style="fill: none; fill-opacity:0; stroke-width: 0.02; stroke: #dbdbce" d="M 1260.66 433.422 L 1260.66,433.805 L 1260.59,434.119 L 1260.48,434.537 L 1260.34,434.954 L 1260.14,435.268 L 1259.89,435.651 L 1259.58,435.999 L 1259.26,436.313 L 1258.95,436.696 L 1258.53,437.079 L 1258.12,437.392 L 1257.66,437.671 L 1257.14,437.949 L 1256.65,438.263 L 1256.03,438.506 L 1255.47,438.82 L 1254.84,439.063 L 1254.15,439.307 L 1253.45,439.516 L 1252.79,439.725 L 1252.06,439.934 L 1251.33,440.143 L 1250.56,440.247 L 1249.72,440.387 L 1248.92,440.456 L 1248.09,440.596 L 1247.32,440.7 L 1246.45,440.805 L 1245.58,440.839 L 1244.74,440.874 L 1243.91,440.874"/>
    <path style="fill: none; fill-opacity:0; stroke-width: 0.02; stroke: #dbdbce" d="M 1245.75 440.874 L 1244.92,440.874 L 1244.12,440.839 L 1243.32,440.77 L 1242.48,440.665 L 1241.64,440.596 L 1240.88,440.456 L 1240.11,440.387 L 1239.31,440.213 L 1238.58,440.039 L 1237.81,439.83 L 1237.15,439.621 L 1236.46,439.412 L 1235.79,439.168 L 1235.17,438.924 L 1234.61,438.68 L 1234.02,438.402 L 1233.46,438.088 L 1232.97,437.81 L 1232.49,437.462 L 1232.07,437.113 L 1231.69,436.765 L 1231.37,436.452 L 1231.02,436.069 L 1230.75,435.686 L 1230.54,435.372 L 1230.29,434.989 L 1230.19,434.537 L 1230.08,434.154 L 1229.98,433.805 L 1229.94,433.422"/>
    <path style="fill: none; fill-opacity:0; stroke-width: 0.02; stroke: #dbdbce" d="M 1242.06 419.458 L 1242.93,419.458 L 1243.77,419.493 L 1244.64,419.493 L 1245.41,419.563 L 1246.24,419.667 L 1247.08,419.737 L 1247.88,419.807 L 1248.71,419.981 L 1249.44,420.12 L 1250.18,420.225 L 1250.91,420.399 L 1251.64,420.608 L 1252.3,420.782 L 1252.93,420.991 L 1253.55,421.269 L 1254.25,421.478 L 1254.74,421.722 L 1255.29,421.931 L 1255.82,422.209 L 1256.24,422.523 L 1256.69,422.801 L 1257.07,423.045 L 1257.45,423.359 L 1257.73,423.672 L 1258.01,424.02 L 1258.29,424.334 L 1258.43,424.612 L 1258.6,424.96 L 1258.71,425.239 L 1258.74,425.622 L 1258.78,425.901"/>
    <path style="fill: none; fill-opacity:0; stroke-width: 0.02; stroke: #dbdbce" d="M 1228.13 425.901 L 1228.13,425.587 L 1228.17,425.239 L 1228.31,424.926 L 1228.45,424.543 L 1228.62,424.264 L 1228.9,423.881 L 1229.18,423.602 L 1229.46,423.254 L 1229.87,423.01 L 1230.19,422.662 L 1230.61,422.384 L 1231.16,422.14 L 1231.62,421.792 L 1232.14,421.617 L 1232.7,421.339 L 1233.32,421.06 L 1233.98,420.851 L 1234.65,420.642 L 1235.31,420.468 L 1236,420.329 L 1236.73,420.155 L 1237.5,419.981 L 1238.23,419.876 L 1239,419.737 L 1239.76,419.667 L 1240.56,419.563 L 1241.4,419.493 L 1242.27,419.493 L 1243.11,419.458 L 1243.91,419.458"/>
    <path style="fill: #a5a585" d="M 1338.9 453.027 L 1168.38,453.027 L 1168.38,445.575 L 1338.9,445.575 L 1338.9,453.027z"/>
    <path style="fill: none; fill-opacity:0; stroke-width: 0.02; stroke: #494936" d="M 1338.9 453.027 L 1168.38,453.027 L 1168.38,445.575 L 1338.9,445.575 L 1338.9,453.027"/>
    <path style="fill: #a5a585" d="M 1267.2 373.632 L 1096.68,373.632 L 1096.68,256.977 L 1267.2,256.977 L 1267.2,373.632z"/>
    <path style="fill: none; fill-opacity:0; stroke-width: 0.02; stroke: #494936" d="M 1267.2 373.632 L 1096.68,373.632 L 1096.68,256.977 L 1267.2,256.977 L 1267.2,373.632"/>
    <path style="fill: #7a7a5a" d="M 1092.01 369.035 L 1092.01,252.38 L 1096.68,256.977 L 1096.68,373.632 L 1092.01,369.035z"/>
    <path style="fill: none; fill-opacity:0; stroke-width: 0.02; stroke: #494936" d="M 1092.01 369.035 L 1092.01,252.38 L 1096.68,256.977 L 1096.68,373.632 L 1092.01,369.035"/>
    <path style="fill: #ffffff" d="M 1258.78 366.215 L 1105.04,366.215 L 1105.04,266.344 L 1258.78,266.344 L 1258.78,366.215z"/>
    <path style="fill: none; fill-opacity:0; stroke-width: 0.02; stroke: #494936" d="M 1258.78 366.215 L 1105.04,366.215 L 1105.04,266.344 L 1258.78,266.344 L 1258.78,366.215"/>
    <path style="fill: #93936c" d="M 1258.78 379.273 L 1115.34,379.273 L 1152.6,416.638 L 1296.04,416.638 L 1258.78,379.273z"/>
    <path style="fill: none; fill-opacity:0; stroke-width: 0.02; stroke: #494936" d="M 1258.78 379.273 L 1115.34,379.273 L 1152.6,416.638 L 1296.04,416.638 L 1258.78,379.273"/>
    <path style="fill: #7a7a5a" d="M 1236.46 431.054 L 1236.46,430.845 L 1236.49,430.636 L 1236.53,430.428 L 1236.63,430.184 L 1236.66,429.975 L 1236.8,429.801 L 1236.87,429.592 L 1237.05,429.452 L 1237.22,429.244 L 1237.33,429.035 L 1237.5,428.86 L 1237.71,428.686 L 1237.92,428.477 L 1238.16,428.303 L 1238.37,428.199 L 1238.61,428.025 L 1238.89,427.885 L 1239.21,427.781 L 1239.45,427.607 L 1239.76,427.537 L 1240.08,427.398 L 1240.36,427.328 L 1240.7,427.224 L 1241.02,427.154 L 1241.4,427.085 L 1241.71,426.98 L 1242.06,426.945 L 1242.38,426.945 L 1242.72,426.91 L 1243.14,426.91 L 1243.42,426.91 L 1243.42,426.91 L 1243.8,426.91 L 1244.19,426.91 L 1244.5,426.945 L 1244.85,426.945 L 1245.16,426.98 L 1245.54,427.085 L 1245.86,427.154 L 1246.21,427.224 L 1246.52,427.328 L 1246.83,427.398 L 1247.11,427.537 L 1247.46,427.607 L 1247.7,427.781 L 1247.98,427.885 L 1248.26,428.025 L 1248.5,428.199 L 1248.71,428.303 L 1248.96,428.477 L 1249.17,428.686 L 1249.34,428.86 L 1249.58,429.035 L 1249.69,429.244 L 1249.9,429.452 L 1250,429.592 L 1250.11,429.801 L 1250.21,429.975 L 1250.28,430.184 L 1250.32,430.428 L 1250.38,430.636 L 1250.45,430.845 L 1250.45,431.054 L 1250.45,431.054 L 1250.45,431.298 L 1250.38,431.507 L 1250.32,431.716 L 1250.28,431.925 L 1250.21,432.134 L 1250.11,432.308 L 1250,432.552 L 1249.9,432.726 L 1249.69,432.935 L 1249.58,433.074 L 1249.34,433.283 L 1249.17,433.457 L 1248.96,433.666 L 1248.71,433.805 L 1248.5,433.945 L 1248.26,434.119 L 1247.98,434.258 L 1247.7,434.362 L 1247.46,434.537 L 1247.11,434.606 L 1246.83,434.745 L 1246.52,434.815 L 1246.21,434.92 L 1245.86,434.989 L 1245.54,435.059 L 1245.16,435.129 L 1244.85,435.198 L 1244.5,435.198 L 1244.19,435.198 L 1243.8,435.233 L 1243.42,435.233 L 1243.42,435.233 L 1243.14,435.233 L 1242.72,435.198 L 1242.38,435.198 L 1242.06,435.198 L 1241.71,435.129 L 1241.4,435.059 L 1241.02,434.989 L 1240.7,434.92 L 1240.36,434.815 L 1240.08,434.745 L 1239.76,434.606 L 1239.45,434.537 L 1239.21,434.362 L 1238.89,434.258 L 1238.61,434.119 L 1238.37,433.945 L 1238.16,433.805 L 1237.92,433.666 L 1237.71,433.457 L 1237.5,433.283 L 1237.33,433.074 L 1237.22,432.935 L 1237.05,432.726 L 1236.87,432.552 L 1236.8,432.308 L 1236.66,432.134 L 1236.63,431.925 L 1236.53,431.716 L 1236.49,431.507 L 1236.46,431.298 L 1236.46,431.054z"/>
    <path style="fill: none; fill-opacity:0; stroke-width: 0.02; stroke: #dbdbce" d="M 1237.36 430.636 L 1237.36,430.428 L 1237.4,430.219 L 1237.4,430.044 L 1237.5,429.905 L 1237.57,429.627 L 1237.61,429.522 L 1237.78,429.313 L 1237.92,429.104 L 1238.02,428.965 L 1238.16,428.826 L 1238.37,428.686 L 1238.55,428.443 L 1238.75,428.303 L 1238.96,428.199 L 1239.14,428.025 L 1239.42,427.885 L 1239.62,427.816 L 1239.87,427.642 L 1240.11,427.572 L 1240.43,427.433 L 1240.7,427.363 L 1241.02,427.293 L 1241.3,427.189 L 1241.61,427.119 L 1241.92,427.085 L 1242.27,426.98 L 1242.55,426.945 L 1242.93,426.91 L 1243.21,426.91 L 1243.56,426.91 L 1243.87,426.91 L 1243.87,426.91 L 1244.22,426.91 L 1244.53,426.91 L 1244.88,426.91 L 1245.16,426.945 L 1245.51,426.98 L 1245.79,427.085 L 1246.17,427.119 L 1246.45,427.189 L 1246.69,427.293 L 1247.04,427.363 L 1247.32,427.433 L 1247.67,427.572 L 1247.84,427.642 L 1248.16,427.816 L 1248.37,427.885 L 1248.61,428.025 L 1248.82,428.199 L 1249.03,428.303 L 1249.24,428.443 L 1249.41,428.686 L 1249.58,428.826 L 1249.72,428.965 L 1249.9,429.104 L 1249.97,429.313 L 1250.11,429.522 L 1250.18,429.627 L 1250.25,429.905 L 1250.32,430.044 L 1250.35,430.219 L 1250.38,430.428 L 1250.38,430.636 L 1250.38,430.636 L 1250.38,430.811 L 1250.35,431.019 L 1250.32,431.228 L 1250.25,431.333 L 1250.18,431.542 L 1250.11,431.751 L 1249.97,431.925 L 1249.9,432.099 L 1249.72,432.308 L 1249.58,432.412 L 1249.41,432.587 L 1249.24,432.761 L 1249.03,432.935 L 1248.82,433.039 L 1248.61,433.213 L 1248.37,433.318 L 1248.16,433.457 L 1247.84,433.596 L 1247.67,433.666 L 1247.32,433.805 L 1247.04,433.91 L 1246.69,433.945 L 1246.45,434.049 L 1246.17,434.119 L 1245.79,434.154 L 1245.51,434.258 L 1245.16,434.328 L 1244.88,434.328 L 1244.53,434.328 L 1244.22,434.328 L 1243.87,434.328 L 1243.87,434.328 L 1243.56,434.328 L 1243.21,434.328 L 1242.93,434.328 L 1242.55,434.328 L 1242.27,434.258 L 1241.92,434.154 L 1241.61,434.119 L 1241.3,434.049 L 1241.02,433.945 L 1240.7,433.91 L 1240.43,433.805 L 1240.11,433.666 L 1239.87,433.596 L 1239.62,433.457 L 1239.42,433.318 L 1239.14,433.213 L 1238.96,433.039 L 1238.75,432.935 L 1238.55,432.761 L 1238.37,432.587 L 1238.16,432.412 L 1238.02,432.308 L 1237.92,432.099 L 1237.78,431.925 L 1237.61,431.751 L 1237.57,431.542 L 1237.5,431.333 L 1237.4,431.228 L 1237.4,431.019 L 1237.36,430.811 L 1237.36,430.636"/>
    <path style="fill: none; fill-opacity:0; stroke-width: 0.02; stroke: #626248" d="M 1259.68 434.328 L 1259.68,434.745 L 1259.61,435.059 L 1259.47,435.442 L 1259.37,435.86 L 1259.16,436.208 L 1258.95,436.521 L 1258.64,436.904 L 1258.32,437.288 L 1257.98,437.601 L 1257.63,437.949 L 1257.18,438.263 L 1256.76,438.611 L 1256.2,438.889 L 1255.68,439.168 L 1255.12,439.412 L 1254.53,439.725 L 1253.87,439.969 L 1253.28,440.213 L 1252.51,440.422 L 1251.81,440.63 L 1251.08,440.874 L 1250.35,441.048 L 1249.58,441.153 L 1248.82,441.292 L 1247.98,441.431 L 1247.18,441.501 L 1246.38,441.64 L 1245.54,441.71 L 1244.67,441.745 L 1243.84,441.745 L 1243,441.745"/>
    <path style="fill: none; fill-opacity:0; stroke-width: 0.02; stroke: #626248" d="M 1244.88 441.745 L 1244.01,441.745 L 1243.21,441.745 L 1242.34,441.675 L 1241.57,441.571 L 1240.77,441.501 L 1239.94,441.431 L 1239.21,441.292 L 1238.41,441.118 L 1237.71,440.944 L 1236.94,440.805 L 1236.21,440.596 L 1235.55,440.387 L 1234.89,440.143 L 1234.26,439.83 L 1233.64,439.586 L 1233.11,439.307 L 1232.56,439.029 L 1232.07,438.68 L 1231.62,438.402 L 1231.16,438.019 L 1230.78,437.74 L 1230.4,437.392 L 1230.08,436.974 L 1229.87,436.591 L 1229.56,436.278 L 1229.42,435.86 L 1229.25,435.477 L 1229.11,435.059 L 1229.11,434.745 L 1229.04,434.328"/>
    <path style="fill: none; fill-opacity:0; stroke-width: 0.02; stroke: #626248" d="M 1241.16 420.364 L 1241.96,420.364 L 1242.79,420.399 L 1243.63,420.399 L 1244.47,420.468 L 1245.34,420.573 L 1246.17,420.608 L 1246.9,420.747 L 1247.74,420.851 L 1248.5,421.06 L 1249.24,421.13 L 1249.97,421.339 L 1250.66,421.478 L 1251.36,421.722 L 1251.99,421.931 L 1252.61,422.14 L 1253.28,422.349 L 1253.8,422.592 L 1254.35,422.836 L 1254.84,423.15 L 1255.29,423.428 L 1255.71,423.672 L 1256.13,424.02 L 1256.55,424.264 L 1256.79,424.543 L 1257.07,424.926 L 1257.31,425.204 L 1257.52,425.552 L 1257.66,425.831 L 1257.77,426.144 L 1257.8,426.527 L 1257.84,426.876"/>
    <path style="fill: none; fill-opacity:0; stroke-width: 0.02; stroke: #626248" d="M 1227.16 426.876 L 1227.23,426.493 L 1227.26,426.144 L 1227.33,425.831 L 1227.51,425.483 L 1227.72,425.169 L 1227.96,424.821 L 1228.24,424.543 L 1228.55,424.229 L 1228.9,423.881 L 1229.32,423.602 L 1229.74,423.289 L 1230.19,423.01 L 1230.75,422.767 L 1231.23,422.523 L 1231.82,422.279 L 1232.38,422 L 1233.01,421.792 L 1233.67,421.617 L 1234.4,421.408 L 1235.1,421.269 L 1235.79,421.06 L 1236.53,420.921 L 1237.29,420.782 L 1238.13,420.642 L 1238.86,420.573 L 1239.66,420.468 L 1240.5,420.399 L 1241.37,420.399 L 1242.13,420.364 L 1243,420.364"/>
    <path style="fill: #7a7a5a" d="M 1096.68 380.179 L 1168.38,452.122 L 1168.38,445.575 L 1096.68,373.632 L 1096.68,380.179z"/>
    <path style="fill: none; fill-opacity:0; stroke-width: 0.02; stroke: #494936" d="M 1096.68 380.179 L 1168.38,452.122 L 1168.38,445.575 L 1096.68,373.632 L 1096.68,380.179"/>
    <path style="fill: #7a7a5a" d="M 1120.88 368.13 L 1120.88,369.906 L 1106.92,369.906 L 1106.92,368.13 L 1120.88,368.13z"/>
    <path style="fill: none; fill-opacity:0; stroke-width: 0.02; stroke: #494936" d="M 1120.88 368.13 L 1120.88,369.906 L 1106.92,369.906 L 1106.92,368.13 L 1120.88,368.13"/>
    <path style="fill: none; fill-opacity:0; stroke-width: 0.02; stroke: #000000" d="M 1124.71 388.606 L 1267.2,388.606"/>
    <path style="fill: none; fill-opacity:0; stroke-width: 0.02; stroke: #000000" d="M 1133.97 397.973 L 1276.47,397.973"/>
    <path style="fill: none; fill-opacity:0; stroke-width: 0.02; stroke: #000000" d="M 1143.27 407.305 L 1285.8,407.305"/>
    <path style="fill: #c9c9b6" d="M 1262.54 252.38 L 1092.01,252.38 L 1096.68,256.977 L 1267.2,256.977 L 1262.54,252.38z"/>
    <path style="fill: none; fill-opacity:0; stroke-width: 0.02; stroke: #494936" d="M 1262.54 252.38 L 1092.01,252.38 L 1096.68,256.977 L 1267.2,256.977 L 1262.54,252.38"/>
  </g>
  <line style="fill: none; fill-opacity:0; stroke-width: 2; stroke: #0000ff" x1="430.138" y1="298" x2="1092.01" y2="369.035"/>
  <line style="fill: none; fill-opacity:0; stroke-width: 2; stroke: #000000" x1="430.138" y1="298" x2="756.002" y2="145"/>
  <line style="fill: none; fill-opacity:0; stroke-width: 2; stroke: #ffffff" x1="430.138" y1="298" x2="794.002" y2="145"/>
  <line style="fill: none; fill-opacity:0; stroke-width: 2; stroke: #ffffff" x1="870.002" y1="145" x2="1092.01" y2="369.035"/>
  <line style="fill: none; fill-opacity:0; stroke-width: 2; stroke: #000000" x1="908.002" y1="145" x2="1092.01" y2="369.035"/>
</svg>
